<?xml version="1.0" encoding="UTF-8"?>
<svg xmlns="http://www.w3.org/2000/svg" xmlns:xlink="http://www.w3.org/1999/xlink" width="14px" height="19px" viewBox="0 0 14 19" version="1.1">
<g id="surface1">
<path style=" stroke:none;fill-rule:nonzero;fill:#fff;fill-opacity:1;" d="M 11.761719 1.640625 C 10.542969 0.582031 8.851562 0 7 0 C 5.148438 0 3.457031 0.582031 2.238281 1.640625 C 0.773438 2.910156 0 4.839844 0 7.226562 C 0 12.421875 6.136719 18.503906 6.398438 18.761719 C 6.558594 18.917969 6.773438 19.003906 7 19.003906 C 7.226562 19.003906 7.441406 18.917969 7.601562 18.761719 C 7.863281 18.5 14 12.417969 14 7.226562 C 14 4.839844 13.226562 2.910156 11.761719 1.640625 Z M 7 16.964844 C 6.148438 16.046875 5.351562 15.082031 4.617188 14.074219 C 2.707031 11.425781 1.695312 9.058594 1.695312 7.226562 C 1.695312 2.066406 5.757812 1.652344 7 1.652344 C 11.921875 1.652344 12.304688 5.917969 12.304688 7.226562 C 12.304688 10.859375 8.503906 15.335938 7 16.964844 Z M 7 3.5625 C 5.605469 3.539062 4.339844 4.339844 3.789062 5.585938 C 3.242188 6.835938 3.519531 8.28125 4.5 9.246094 C 5.476562 10.214844 6.957031 10.511719 8.246094 9.996094 C 9.535156 9.480469 10.375 8.261719 10.378906 6.902344 C 10.390625 5.074219 8.878906 3.578125 7 3.5625 Z M 7 8.796875 C 6.207031 8.820312 5.480469 8.371094 5.160156 7.664062 C 4.84375 6.957031 4.996094 6.132812 5.550781 5.582031 C 6.101562 5.027344 6.945312 4.855469 7.679688 5.144531 C 8.414062 5.4375 8.894531 6.132812 8.890625 6.902344 C 8.90625 7.933594 8.058594 8.78125 7 8.796875 Z M 7 8.796875 "/>
</g>
</svg>
