<?xml version="1.0" encoding="UTF-8"?>
<svg xmlns="http://www.w3.org/2000/svg" xmlns:xlink="http://www.w3.org/1999/xlink" width="17px" height="16px" viewBox="0 0 17 16" version="1.1">
<g id="surface1">
<path style=" stroke:none;fill-rule:nonzero;fill:#fff;fill-opacity:1;" d="M 15.234375 13.671875 L 10.578125 13.671875 L 8.507812 15.75 L 6.433594 13.671875 L 1.765625 13.671875 C 0.910156 13.671875 0.214844 12.976562 0.214844 12.117188 L 0.214844 1.730469 C 0.214844 0.871094 0.910156 0.175781 1.765625 0.171875 L 15.234375 0.171875 C 16.089844 0.171875 16.785156 0.871094 16.785156 1.730469 L 16.785156 12.117188 C 16.789062 12.53125 16.625 12.925781 16.332031 13.21875 C 16.042969 13.511719 15.644531 13.675781 15.234375 13.671875 Z M 15.75 1.730469 C 15.75 1.445312 15.519531 1.210938 15.234375 1.210938 L 1.765625 1.210938 C 1.480469 1.210938 1.25 1.445312 1.25 1.730469 L 1.25 12.117188 C 1.25 12.402344 1.480469 12.636719 1.765625 12.636719 L 6.945312 12.636719 L 8.5 14.191406 L 10.054688 12.636719 L 15.234375 12.636719 C 15.519531 12.636719 15.75 12.402344 15.75 12.117188 Z M 12.644531 7.441406 C 12.070312 7.441406 11.609375 6.976562 11.609375 6.402344 C 11.609375 5.832031 12.070312 5.367188 12.644531 5.367188 C 13.214844 5.367188 13.679688 5.832031 13.679688 6.402344 C 13.679688 6.976562 13.214844 7.441406 12.644531 7.441406 Z M 8.5 7.441406 C 7.929688 7.441406 7.464844 6.976562 7.464844 6.402344 C 7.464844 5.832031 7.929688 5.367188 8.5 5.367188 C 9.070312 5.367188 9.535156 5.832031 9.535156 6.402344 C 9.535156 6.976562 9.070312 7.441406 8.5 7.441406 Z M 4.355469 7.441406 C 3.785156 7.441406 3.320312 6.976562 3.320312 6.402344 C 3.320312 5.832031 3.785156 5.367188 4.355469 5.367188 C 4.929688 5.367188 5.390625 5.832031 5.390625 6.402344 C 5.390625 6.976562 4.929688 7.441406 4.355469 7.441406 Z M 4.355469 7.441406 "/>
</g>
</svg>
