<?xml version="1.0" encoding="UTF-8"?>
<svg xmlns="http://www.w3.org/2000/svg" xmlns:xlink="http://www.w3.org/1999/xlink" width="14px" height="18px" viewBox="0 0 14 18" version="1.1">
<g id="surface1">
<path style=" stroke:none;fill-rule:nonzero;fill:#fff;fill-opacity:1;" d="M 10.40625 17.816406 L 3.59375 17.816406 C 1.714844 17.816406 0.1875 16.335938 0.1875 14.511719 L 0.1875 3.488281 C 0.1875 1.664062 1.714844 0.183594 3.59375 0.183594 L 10.40625 0.183594 C 12.285156 0.183594 13.8125 1.664062 13.8125 3.488281 L 13.8125 14.511719 C 13.8125 16.335938 12.285156 17.816406 10.40625 17.816406 Z M 12.675781 3.488281 C 12.675781 2.273438 11.660156 1.285156 10.40625 1.285156 L 3.59375 1.285156 C 2.339844 1.285156 1.324219 2.273438 1.324219 3.488281 L 1.324219 14.511719 C 1.324219 15.726562 2.339844 16.714844 3.59375 16.714844 L 10.40625 16.714844 C 11.660156 16.714844 12.675781 15.726562 12.675781 14.511719 Z M 8.703125 3.488281 L 5.296875 3.488281 C 4.984375 3.488281 4.730469 3.242188 4.730469 2.9375 C 4.730469 2.632812 4.984375 2.386719 5.296875 2.386719 L 8.703125 2.386719 C 9.015625 2.386719 9.269531 2.632812 9.269531 2.9375 C 9.269531 3.242188 9.015625 3.488281 8.703125 3.488281 Z M 7 13.40625 C 7.625 13.40625 8.136719 13.902344 8.136719 14.511719 C 8.136719 15.117188 7.625 15.613281 7 15.613281 C 6.375 15.613281 5.863281 15.117188 5.863281 14.511719 C 5.863281 13.902344 6.375 13.40625 7 13.40625 Z M 7 13.40625 "/>
</g>
</svg>
