<?xml version="1.0" encoding="UTF-8"?>
<svg xmlns="http://www.w3.org/2000/svg" xmlns:xlink="http://www.w3.org/1999/xlink" width="25px" height="24px" viewBox="0 0 25 24" version="1.1">
<g id="surface1">
<path style=" stroke:none;fill-rule:nonzero;fill:#fff;fill-opacity:1;" d="M 23.113281 17.347656 L 20.40625 16.34375 C 20.417969 16.207031 20.371094 16.074219 20.28125 15.980469 L 19.414062 15.050781 L 19.414062 13.496094 C 19.507812 13.417969 19.597656 13.339844 19.683594 13.257812 C 20.777344 12.207031 21.398438 10.746094 21.398438 9.214844 L 21.398438 7.96875 C 21.726562 7.25 21.894531 6.460938 21.894531 5.667969 L 21.894531 0.601562 C 21.894531 0.339844 21.6875 0.128906 21.429688 0.128906 L 14.484375 0.128906 C 12.035156 0.128906 10.050781 2.15625 10.046875 4.652344 L 10.046875 5.664062 C 10.046875 6.460938 10.214844 7.246094 10.542969 7.96875 L 10.542969 9.039062 C 10.539062 10.738281 11.265625 12.351562 12.53125 13.457031 L 12.53125 15.050781 L 11.664062 15.976562 C 11.574219 16.074219 11.53125 16.207031 11.542969 16.339844 L 8.6875 17.398438 C 8.480469 17.476562 8.289062 17.578125 8.113281 17.707031 L 7.664062 17.476562 C 9 16.882812 9.421875 16.050781 9.441406 16.007812 C 9.507812 15.875 9.507812 15.71875 9.441406 15.585938 C 9.109375 14.902344 9.066406 13.648438 9.035156 12.644531 C 9.023438 12.308594 9.011719 11.992188 8.992188 11.710938 C 8.835938 9.4375 7.140625 7.726562 5.054688 7.726562 C 2.96875 7.726562 1.277344 9.4375 1.117188 11.710938 C 1.097656 11.992188 1.089844 12.308594 1.078125 12.644531 C 1.046875 13.648438 1.003906 14.902344 0.671875 15.585938 C 0.605469 15.71875 0.605469 15.875 0.671875 16.007812 C 0.691406 16.050781 1.113281 16.882812 2.449219 17.476562 L 1.203125 18.113281 C 0.539062 18.449219 0.121094 19.144531 0.125 19.902344 L 0.125 23.402344 C 0.125 23.664062 0.332031 23.875 0.589844 23.875 C 0.84375 23.875 1.050781 23.664062 1.050781 23.402344 L 1.050781 19.902344 C 1.050781 19.503906 1.269531 19.140625 1.617188 18.964844 L 3.171875 18.171875 L 3.710938 18.695312 C 4.464844 19.429688 5.648438 19.429688 6.402344 18.695312 L 6.941406 18.171875 L 7.445312 18.433594 C 7.203125 18.828125 7.074219 19.285156 7.074219 19.753906 L 7.074219 23.402344 C 7.074219 23.664062 7.28125 23.875 7.539062 23.875 C 7.796875 23.875 8.003906 23.664062 8.003906 23.402344 L 8.003906 19.75 C 8.003906 19.097656 8.402344 18.515625 9.003906 18.292969 L 12.015625 17.175781 L 13.269531 19.09375 C 13.429688 19.339844 13.6875 19.496094 13.972656 19.527344 C 14.003906 19.527344 14.035156 19.53125 14.070312 19.53125 C 14.324219 19.53125 14.570312 19.429688 14.75 19.242188 L 15.515625 18.460938 L 15.515625 23.398438 C 15.515625 23.660156 15.722656 23.871094 15.976562 23.871094 C 16.234375 23.871094 16.441406 23.660156 16.441406 23.398438 L 16.441406 18.460938 L 17.207031 19.242188 C 17.386719 19.429688 17.632812 19.53125 17.886719 19.53125 C 17.917969 19.53125 17.949219 19.53125 17.984375 19.527344 C 18.269531 19.496094 18.527344 19.339844 18.6875 19.09375 L 19.941406 17.175781 L 22.953125 18.292969 C 23.550781 18.515625 23.953125 19.097656 23.953125 19.75 L 23.953125 23.398438 C 23.953125 23.660156 24.160156 23.871094 24.417969 23.871094 C 24.675781 23.871094 24.882812 23.660156 24.882812 23.398438 L 24.882812 19.75 C 24.878906 19.105469 24.636719 18.484375 24.195312 18.019531 C 23.894531 17.703125 23.523438 17.472656 23.113281 17.347656 Z M 3.101562 16.726562 C 2.234375 16.40625 1.796875 15.980469 1.613281 15.75 C 1.742188 15.382812 1.832031 15 1.875 14.613281 C 2.132812 15.234375 2.558594 15.769531 3.101562 16.15625 Z M 5.761719 18.007812 C 5.367188 18.390625 4.746094 18.390625 4.351562 18.007812 L 3.917969 17.589844 C 3.992188 17.445312 4.03125 17.285156 4.03125 17.125 L 4.03125 16.621094 C 4.699219 16.832031 5.414062 16.832031 6.082031 16.621094 L 6.082031 17.125 C 6.082031 17.285156 6.121094 17.445312 6.195312 17.589844 Z M 5.054688 15.832031 C 3.667969 15.832031 2.542969 14.683594 2.542969 13.265625 C 2.542969 13.003906 2.332031 12.792969 2.078125 12.792969 C 2.050781 12.792969 2.027344 12.796875 2 12.800781 C 2 12.761719 2 12.71875 2.003906 12.679688 C 2.015625 12.351562 2.023438 12.046875 2.042969 11.78125 C 2.089844 10.953125 2.425781 10.171875 2.980469 9.570312 C 3.527344 8.996094 4.273438 8.671875 5.054688 8.671875 C 5.835938 8.671875 6.585938 8.996094 7.128906 9.570312 C 7.6875 10.171875 8.019531 10.953125 8.066406 11.78125 C 8.085938 12.046875 8.09375 12.351562 8.105469 12.679688 C 8.105469 12.707031 8.105469 12.734375 8.105469 12.761719 C 7.601562 11.96875 6.820312 11.382812 5.816406 11.054688 C 5.246094 10.867188 4.648438 10.769531 4.050781 10.769531 C 3.929688 10.769531 3.8125 10.824219 3.730469 10.914062 L 2.890625 11.796875 C 2.769531 11.917969 2.722656 12.09375 2.769531 12.261719 C 2.8125 12.429688 2.941406 12.558594 3.109375 12.597656 C 3.273438 12.636719 3.445312 12.582031 3.558594 12.457031 L 4.253906 11.71875 C 4.855469 11.746094 6.789062 11.976562 7.535156 13.664062 C 7.347656 14.914062 6.292969 15.832031 5.054688 15.832031 Z M 7.007812 16.726562 L 7.007812 16.160156 C 7.554688 15.777344 7.976562 15.242188 8.230469 14.617188 C 8.277344 15.003906 8.367188 15.382812 8.496094 15.75 C 8.3125 15.980469 7.875 16.40625 7.007812 16.726562 Z M 11.476562 9.039062 L 11.476562 7.863281 C 11.476562 7.792969 11.460938 7.722656 11.429688 7.660156 C 11.132812 7.039062 10.980469 6.359375 10.980469 5.667969 L 10.980469 4.65625 C 10.980469 2.679688 12.546875 1.078125 14.484375 1.074219 L 20.96875 1.074219 L 20.96875 5.667969 C 20.96875 6.359375 20.816406 7.039062 20.519531 7.660156 C 20.488281 7.722656 20.472656 7.792969 20.472656 7.863281 L 20.472656 9.214844 C 20.476562 10.484375 19.960938 11.699219 19.050781 12.5625 C 18.933594 12.671875 18.816406 12.773438 18.695312 12.871094 L 18.6875 12.875 C 17.824219 13.542969 16.753906 13.871094 15.671875 13.792969 C 13.320312 13.640625 11.476562 11.550781 11.476562 9.039062 Z M 14.089844 18.574219 C 14.082031 18.582031 14.074219 18.585938 14.0625 18.582031 C 14.054688 18.582031 14.042969 18.578125 14.039062 18.570312 L 12.597656 16.359375 L 13.058594 15.859375 L 15.25 17.386719 Z M 15.976562 16.746094 L 13.460938 14.992188 L 13.460938 14.109375 C 14.125 14.472656 14.859375 14.691406 15.613281 14.738281 C 15.738281 14.746094 15.859375 14.75 15.980469 14.75 C 16.851562 14.753906 17.714844 14.539062 18.488281 14.125 L 18.488281 14.988281 Z M 17.910156 18.570312 C 17.90625 18.578125 17.894531 18.582031 17.886719 18.582031 C 17.875 18.585938 17.867188 18.582031 17.859375 18.574219 L 16.699219 17.390625 L 18.886719 15.859375 L 19.351562 16.355469 Z M 17.910156 18.570312 "/>
<path style=" stroke:none;fill-rule:nonzero;fill:#fff;fill-opacity:1;" d="M 24.410156 24 C 24.085938 23.996094 23.824219 23.730469 23.824219 23.398438 L 23.824219 19.75 C 23.824219 19.152344 23.457031 18.617188 22.902344 18.410156 L 19.984375 17.328125 L 18.785156 19.164062 C 18.605469 19.441406 18.3125 19.621094 17.988281 19.652344 C 17.664062 19.6875 17.34375 19.566406 17.113281 19.332031 L 16.554688 18.769531 L 16.554688 23.398438 C 16.554688 23.730469 16.292969 24 15.96875 24 C 15.644531 24 15.378906 23.730469 15.378906 23.398438 L 15.378906 18.769531 L 14.832031 19.332031 C 14.601562 19.566406 14.28125 19.683594 13.957031 19.652344 C 13.632812 19.621094 13.339844 19.441406 13.160156 19.164062 L 11.960938 17.328125 L 9.042969 18.410156 C 8.492188 18.617188 8.125 19.152344 8.121094 19.75 L 8.121094 23.398438 C 8.121094 23.730469 7.859375 23.996094 7.535156 23.996094 C 7.210938 23.996094 6.945312 23.730469 6.945312 23.398438 L 6.945312 19.75 C 6.945312 19.308594 7.058594 18.871094 7.269531 18.480469 L 6.960938 18.324219 L 6.484375 18.785156 C 5.683594 19.5625 4.421875 19.5625 3.621094 18.785156 L 3.148438 18.320312 L 1.675781 19.074219 C 1.371094 19.226562 1.179688 19.546875 1.179688 19.894531 L 1.179688 23.394531 C 1.179688 23.726562 0.914062 23.996094 0.589844 23.996094 C 0.265625 23.996094 0.00390625 23.726562 0.00390625 23.394531 L 0.00390625 19.902344 C 0 19.097656 0.445312 18.363281 1.152344 18.003906 L 2.167969 17.484375 C 0.96875 16.878906 0.574219 16.101562 0.558594 16.066406 C 0.476562 15.898438 0.476562 15.699219 0.558594 15.53125 C 0.878906 14.871094 0.917969 13.636719 0.953125 12.640625 C 0.964844 12.304688 0.972656 11.988281 0.992188 11.703125 C 1.15625 9.367188 2.902344 7.597656 5.054688 7.597656 C 7.207031 7.597656 8.953125 9.363281 9.113281 11.703125 C 9.132812 11.988281 9.144531 12.308594 9.15625 12.640625 C 9.1875 13.636719 9.226562 14.871094 9.550781 15.53125 C 9.632812 15.699219 9.632812 15.898438 9.550781 16.066406 C 9.535156 16.101562 9.140625 16.882812 7.945312 17.484375 L 8.101562 17.5625 C 8.269531 17.449219 8.449219 17.355469 8.640625 17.285156 L 11.417969 16.253906 C 11.429688 16.117188 11.484375 15.988281 11.578125 15.890625 L 12.40625 15 L 12.40625 13.519531 C 11.140625 12.394531 10.414062 10.757812 10.421875 9.042969 L 10.421875 8 C 10.09375 7.269531 9.925781 6.476562 9.925781 5.671875 L 9.925781 4.660156 C 9.925781 2.089844 11.964844 0.0078125 14.484375 0 L 21.433594 0 C 21.757812 0.00390625 22.023438 0.269531 22.023438 0.601562 L 22.023438 5.667969 C 22.023438 6.472656 21.855469 7.265625 21.527344 7.996094 L 21.527344 9.214844 C 21.523438 10.78125 20.890625 12.277344 19.769531 13.347656 C 19.703125 13.410156 19.628906 13.480469 19.542969 13.554688 L 19.542969 15 L 20.371094 15.890625 C 20.464844 15.988281 20.519531 16.117188 20.53125 16.253906 L 23.15625 17.226562 C 23.582031 17.359375 23.96875 17.601562 24.28125 17.929688 C 24.503906 18.171875 24.683594 18.453125 24.808594 18.761719 C 24.933594 19.078125 25 19.414062 25 19.753906 L 25 23.398438 C 25 23.730469 24.734375 23.996094 24.410156 24 Z M 19.886719 17.023438 L 22.988281 18.175781 C 23.640625 18.417969 24.070312 19.046875 24.070312 19.753906 L 24.070312 23.398438 C 24.070312 23.59375 24.222656 23.746094 24.410156 23.746094 C 24.601562 23.746094 24.753906 23.59375 24.753906 23.398438 L 24.753906 19.75 C 24.753906 19.445312 24.695312 19.140625 24.578125 18.855469 C 24.46875 18.578125 24.304688 18.324219 24.101562 18.105469 C 23.816406 17.808594 23.464844 17.589844 23.078125 17.464844 L 23.070312 17.464844 L 20.277344 16.425781 L 20.285156 16.328125 C 20.292969 16.230469 20.257812 16.136719 20.191406 16.0625 L 19.292969 15.097656 L 19.292969 13.4375 L 19.339844 13.398438 C 19.441406 13.3125 19.523438 13.238281 19.601562 13.164062 C 20.667969 12.140625 21.277344 10.710938 21.277344 9.214844 L 21.277344 7.941406 L 21.289062 7.917969 C 21.609375 7.210938 21.773438 6.445312 21.773438 5.667969 L 21.773438 0.601562 C 21.773438 0.410156 21.621094 0.253906 21.433594 0.253906 L 14.484375 0.253906 C 12.101562 0.257812 10.175781 2.226562 10.171875 4.652344 L 10.171875 5.664062 C 10.171875 6.441406 10.335938 7.210938 10.65625 7.914062 L 10.667969 7.941406 L 10.667969 9.039062 C 10.660156 10.699219 11.371094 12.28125 12.609375 13.359375 L 12.652344 13.398438 L 12.652344 15.101562 L 11.757812 16.066406 C 11.695312 16.136719 11.660156 16.234375 11.667969 16.332031 L 11.671875 16.429688 L 8.726562 17.519531 C 8.535156 17.59375 8.351562 17.691406 8.183594 17.8125 L 8.121094 17.855469 L 7.367188 17.472656 L 7.613281 17.363281 C 8.910156 16.789062 9.3125 15.988281 9.328125 15.953125 C 9.375 15.855469 9.375 15.742188 9.328125 15.644531 C 8.980469 14.9375 8.941406 13.667969 8.910156 12.648438 C 8.898438 12.316406 8.886719 12.003906 8.867188 11.722656 C 8.714844 9.515625 7.074219 7.851562 5.054688 7.851562 C 3.035156 7.851562 1.394531 9.515625 1.238281 11.722656 C 1.21875 12 1.210938 12.316406 1.199219 12.648438 C 1.167969 13.667969 1.125 14.9375 0.777344 15.644531 C 0.730469 15.742188 0.730469 15.855469 0.777344 15.953125 C 0.796875 15.988281 1.199219 16.785156 2.496094 17.363281 L 2.742188 17.472656 L 1.253906 18.230469 C 0.632812 18.542969 0.242188 19.191406 0.246094 19.902344 L 0.246094 23.402344 C 0.246094 23.59375 0.398438 23.75 0.589844 23.75 C 0.777344 23.75 0.929688 23.59375 0.929688 23.402344 L 0.929688 19.902344 C 0.925781 19.457031 1.171875 19.050781 1.5625 18.851562 L 3.191406 18.019531 L 3.792969 18.601562 C 4.5 19.289062 5.609375 19.289062 6.316406 18.601562 L 6.917969 18.019531 L 7.621094 18.378906 L 7.550781 18.496094 C 7.320312 18.871094 7.195312 19.308594 7.195312 19.75 L 7.195312 23.398438 C 7.195312 23.589844 7.347656 23.746094 7.535156 23.746094 C 7.726562 23.746094 7.878906 23.589844 7.878906 23.398438 L 7.878906 19.75 C 7.878906 19.046875 8.308594 18.414062 8.960938 18.171875 L 12.0625 17.019531 L 13.367188 19.023438 C 13.507812 19.238281 13.734375 19.375 13.984375 19.398438 C 14.230469 19.425781 14.480469 19.335938 14.65625 19.152344 L 15.632812 18.15625 L 15.632812 23.402344 C 15.632812 23.59375 15.785156 23.75 15.972656 23.75 C 16.160156 23.75 16.3125 23.59375 16.3125 23.402344 L 16.3125 18.15625 L 17.289062 19.152344 C 17.464844 19.335938 17.714844 19.425781 17.964844 19.398438 C 18.210938 19.375 18.4375 19.238281 18.578125 19.023438 Z M 17.882812 18.710938 C 17.839844 18.710938 17.804688 18.695312 17.773438 18.664062 L 16.503906 17.371094 L 18.90625 15.695312 L 19.511719 16.34375 L 18.011719 18.636719 C 17.984375 18.675781 17.941406 18.703125 17.894531 18.707031 Z M 16.890625 17.40625 L 17.867188 18.402344 L 19.195312 16.371094 L 18.871094 16.023438 Z M 14.066406 18.710938 L 14.050781 18.710938 C 14.003906 18.703125 13.960938 18.679688 13.933594 18.636719 L 12.441406 16.34375 L 13.046875 15.695312 L 15.445312 17.371094 L 14.175781 18.664062 L 14.089844 18.574219 L 14.175781 18.664062 C 14.148438 18.691406 14.109375 18.710938 14.066406 18.710938 Z M 14 18.484375 L 14.089844 18.574219 Z M 14.140625 18.496094 Z M 12.753906 16.371094 L 14.082031 18.402344 L 15.058594 17.40625 L 13.078125 16.023438 Z M 5.054688 18.421875 C 4.761719 18.421875 4.476562 18.304688 4.265625 18.097656 L 3.765625 17.613281 L 3.808594 17.527344 C 3.871094 17.40625 3.90625 17.265625 3.90625 17.125 L 3.90625 16.449219 L 4.066406 16.5 C 4.710938 16.703125 5.398438 16.703125 6.042969 16.5 L 6.203125 16.449219 L 6.203125 17.125 C 6.203125 17.265625 6.238281 17.40625 6.300781 17.527344 L 6.347656 17.613281 L 5.847656 18.097656 C 5.632812 18.304688 5.347656 18.421875 5.054688 18.421875 Z M 4.066406 17.5625 L 4.433594 17.917969 C 4.78125 18.257812 5.328125 18.257812 5.675781 17.917969 L 6.042969 17.5625 C 5.984375 17.425781 5.957031 17.277344 5.957031 17.128906 L 5.957031 16.792969 C 5.363281 16.949219 4.746094 16.949219 4.152344 16.792969 L 4.152344 17.128906 C 4.15625 17.277344 4.125 17.425781 4.066406 17.5625 Z M 6.882812 16.910156 L 6.882812 16.09375 L 6.9375 16.058594 C 7.464844 15.6875 7.875 15.171875 8.121094 14.566406 L 8.292969 14.140625 L 8.355469 14.597656 C 8.402344 14.976562 8.488281 15.347656 8.613281 15.703125 L 8.636719 15.773438 L 8.59375 15.828125 C 8.402344 16.066406 7.945312 16.515625 7.050781 16.84375 Z M 7.132812 16.230469 L 7.132812 16.546875 C 7.800781 16.269531 8.171875 15.9375 8.355469 15.726562 C 8.28125 15.5 8.21875 15.265625 8.175781 15.03125 C 7.917969 15.503906 7.5625 15.914062 7.132812 16.226562 Z M 3.226562 16.902344 L 3.058594 16.839844 C 2.160156 16.511719 1.707031 16.0625 1.515625 15.824219 L 1.46875 15.769531 L 1.496094 15.699219 C 1.621094 15.34375 1.707031 14.972656 1.753906 14.59375 L 1.816406 14.136719 L 1.992188 14.5625 C 2.234375 15.164062 2.644531 15.679688 3.171875 16.050781 L 3.226562 16.089844 Z M 1.753906 15.722656 C 1.933594 15.933594 2.304688 16.265625 2.976562 16.542969 L 2.976562 16.226562 C 2.546875 15.910156 2.191406 15.503906 1.933594 15.03125 C 1.890625 15.265625 1.832031 15.496094 1.753906 15.722656 Z M 15.976562 16.898438 L 13.335938 15.058594 L 13.335938 13.894531 L 13.523438 13.996094 C 14.171875 14.355469 14.890625 14.566406 15.625 14.613281 C 15.746094 14.625 15.867188 14.625 15.984375 14.625 C 16.839844 14.628906 17.679688 14.417969 18.4375 14.011719 L 18.617188 13.917969 L 18.617188 15.058594 Z M 13.585938 14.925781 L 15.976562 16.589844 L 18.363281 14.925781 L 18.363281 14.332031 C 17.621094 14.695312 16.804688 14.882812 15.980469 14.878906 C 15.855469 14.878906 15.730469 14.875 15.609375 14.867188 C 14.90625 14.820312 14.21875 14.632812 13.585938 14.3125 Z M 5.054688 15.957031 C 3.601562 15.957031 2.421875 14.753906 2.417969 13.265625 C 2.417969 13.074219 2.265625 12.921875 2.078125 12.921875 C 2.058594 12.921875 2.039062 12.921875 2.019531 12.925781 L 1.871094 12.949219 L 1.882812 12.675781 C 1.890625 12.363281 1.902344 12.042969 1.921875 11.773438 C 1.972656 10.917969 2.316406 10.105469 2.894531 9.484375 C 3.460938 8.886719 4.242188 8.550781 5.054688 8.550781 C 5.871094 8.550781 6.648438 8.886719 7.214844 9.484375 C 7.792969 10.105469 8.140625 10.917969 8.191406 11.773438 C 8.207031 12.042969 8.21875 12.363281 8.230469 12.675781 L 8.246094 13.214844 L 8.003906 12.835938 C 7.507812 12.058594 6.761719 11.5 5.777344 11.175781 C 5.21875 10.992188 4.636719 10.898438 4.050781 10.898438 C 3.960938 10.898438 3.878906 10.9375 3.816406 11.003906 L 2.980469 11.886719 C 2.890625 11.976562 2.855469 12.105469 2.890625 12.226562 C 2.921875 12.347656 3.019531 12.441406 3.136719 12.472656 C 3.257812 12.503906 3.386719 12.464844 3.46875 12.371094 L 4.207031 11.589844 L 4.265625 11.589844 C 4.863281 11.617188 6.871094 11.851562 7.652344 13.609375 L 7.667969 13.644531 L 7.664062 13.683594 C 7.46875 14.996094 6.359375 15.96875 5.054688 15.957031 Z M 2.128906 12.667969 C 2.433594 12.695312 2.664062 12.957031 2.664062 13.265625 C 2.664062 14.535156 3.613281 15.589844 4.851562 15.699219 C 6.085938 15.808594 7.199219 14.933594 7.410156 13.683594 C 6.699219 12.136719 4.921875 11.886719 4.304688 11.851562 L 3.648438 12.546875 C 3.503906 12.707031 3.285156 12.773438 3.078125 12.722656 C 2.871094 12.671875 2.707031 12.511719 2.648438 12.300781 C 2.59375 12.089844 2.652344 11.867188 2.800781 11.714844 L 3.640625 10.828125 C 3.746094 10.714844 3.890625 10.648438 4.046875 10.644531 C 4.660156 10.644531 5.269531 10.742188 5.851562 10.929688 C 6.730469 11.21875 7.453125 11.707031 7.96875 12.351562 C 7.964844 12.152344 7.957031 11.960938 7.941406 11.785156 C 7.898438 10.988281 7.578125 10.234375 7.039062 9.65625 C 6.519531 9.105469 5.804688 8.796875 5.054688 8.796875 C 4.308594 8.796875 3.589844 9.105469 3.070312 9.65625 C 2.53125 10.234375 2.210938 10.992188 2.167969 11.789062 C 2.148438 12.050781 2.140625 12.363281 2.128906 12.667969 Z M 15.984375 13.933594 C 15.878906 13.933594 15.773438 13.929688 15.664062 13.921875 C 13.246094 13.761719 11.351562 11.617188 11.351562 9.039062 L 11.351562 7.863281 C 11.351562 7.8125 11.339844 7.761719 11.316406 7.714844 C 11.011719 7.078125 10.855469 6.375 10.855469 5.667969 L 10.855469 4.65625 C 10.855469 2.613281 12.480469 0.953125 14.484375 0.949219 L 21.09375 0.949219 L 21.09375 5.667969 C 21.09375 6.375 20.933594 7.078125 20.632812 7.714844 C 20.609375 7.761719 20.597656 7.8125 20.597656 7.863281 L 20.597656 9.214844 C 20.601562 10.519531 20.070312 11.769531 19.136719 12.65625 C 19.019531 12.769531 18.894531 12.875 18.769531 12.972656 L 18.757812 12.980469 C 17.960938 13.601562 16.984375 13.9375 15.984375 13.933594 Z M 14.484375 1.203125 C 12.617188 1.203125 11.101562 2.75 11.101562 4.652344 L 11.101562 5.664062 C 11.101562 6.335938 11.25 7 11.539062 7.601562 C 11.578125 7.683594 11.597656 7.773438 11.597656 7.863281 L 11.597656 9.039062 C 11.597656 11.480469 13.390625 13.515625 15.679688 13.667969 C 16.730469 13.746094 17.773438 13.425781 18.609375 12.777344 L 18.625 12.765625 C 18.738281 12.675781 18.855469 12.578125 18.964844 12.46875 C 19.851562 11.628906 20.355469 10.449219 20.347656 9.210938 L 20.347656 7.863281 C 20.347656 7.773438 20.371094 7.683594 20.40625 7.605469 C 20.695312 7 20.847656 6.339844 20.847656 5.667969 L 20.847656 1.203125 Z M 14.484375 1.203125 "/>
<path style=" stroke:none;fill-rule:nonzero;fill:#fff;fill-opacity:1;" d="M 2.574219 20.511719 C 2.316406 20.511719 2.109375 20.722656 2.109375 20.984375 L 2.109375 23.398438 C 2.109375 23.660156 2.316406 23.871094 2.574219 23.871094 C 2.828125 23.871094 3.039062 23.660156 3.039062 23.398438 L 3.039062 20.984375 C 3.039062 20.722656 2.828125 20.511719 2.574219 20.511719 Z M 2.574219 20.511719 "/>
<path style=" stroke:none;fill-rule:nonzero;fill:#fff;fill-opacity:1;" d="M 2.574219 23.996094 C 2.25 23.996094 1.984375 23.730469 1.984375 23.398438 L 1.984375 20.984375 C 1.984375 20.652344 2.25 20.382812 2.574219 20.382812 C 2.898438 20.382812 3.160156 20.652344 3.160156 20.984375 L 3.160156 23.398438 C 3.160156 23.730469 2.898438 23.996094 2.574219 23.996094 Z M 2.574219 20.636719 C 2.386719 20.636719 2.234375 20.792969 2.234375 20.984375 L 2.234375 23.398438 C 2.234375 23.589844 2.386719 23.746094 2.574219 23.746094 C 2.761719 23.746094 2.914062 23.589844 2.914062 23.398438 L 2.914062 20.984375 C 2.914062 20.792969 2.761719 20.636719 2.574219 20.636719 Z M 2.574219 20.636719 "/>
<path style=" stroke:none;fill-rule:nonzero;fill:#fff;fill-opacity:1;" d="M 19.777344 5.839844 C 18.023438 4.042969 14.347656 4.390625 12.851562 4.621094 C 12.378906 4.691406 12.03125 5.105469 12.035156 5.589844 L 12.035156 6.679688 C 12.035156 6.941406 12.242188 7.15625 12.5 7.15625 C 12.757812 7.15625 12.964844 6.941406 12.964844 6.679688 L 12.964844 5.589844 C 12.964844 5.574219 12.972656 5.5625 12.988281 5.558594 C 13.585938 5.464844 14.773438 5.324219 16.003906 5.40625 C 17.453125 5.503906 18.5 5.875 19.121094 6.507812 C 19.238281 6.632812 19.410156 6.679688 19.570312 6.636719 C 19.734375 6.59375 19.859375 6.464844 19.902344 6.296875 C 19.945312 6.132812 19.898438 5.957031 19.777344 5.839844 Z M 19.777344 5.839844 "/>
<path style=" stroke:none;fill-rule:nonzero;fill:#fff;fill-opacity:1;" d="M 12.503906 7.28125 C 12.179688 7.28125 11.914062 7.011719 11.914062 6.679688 L 11.914062 5.589844 C 11.910156 5.042969 12.304688 4.574219 12.835938 4.496094 C 14.347656 4.261719 18.070312 3.917969 19.867188 5.75 C 20.097656 5.984375 20.097656 6.363281 19.867188 6.597656 C 19.636719 6.832031 19.265625 6.832031 19.035156 6.597656 C 18.4375 5.988281 17.414062 5.628906 16 5.53125 C 14.835938 5.453125 13.707031 5.578125 13.089844 5.671875 L 13.089844 6.679688 C 13.089844 7.011719 12.828125 7.28125 12.503906 7.28125 Z M 15.238281 4.558594 C 14.445312 4.5625 13.65625 4.625 12.871094 4.746094 C 12.460938 4.808594 12.160156 5.167969 12.160156 5.589844 L 12.160156 6.683594 C 12.160156 6.875 12.316406 7.03125 12.503906 7.03125 C 12.691406 7.03125 12.84375 6.875 12.84375 6.683594 L 12.84375 5.589844 C 12.84375 5.511719 12.898438 5.449219 12.96875 5.433594 C 13.574219 5.339844 14.769531 5.199219 16.011719 5.28125 C 17.492188 5.382812 18.566406 5.765625 19.207031 6.417969 C 19.339844 6.554688 19.554688 6.554688 19.691406 6.417969 C 19.824219 6.285156 19.824219 6.0625 19.691406 5.929688 C 18.621094 4.835938 16.808594 4.558594 15.234375 4.558594 Z M 15.238281 4.558594 "/>
<path style=" stroke:none;fill-rule:nonzero;fill:#fff;fill-opacity:1;" d="M 10.515625 20.898438 C 10.257812 20.898438 10.050781 21.109375 10.050781 21.371094 L 10.050781 23.398438 C 10.050781 23.660156 10.257812 23.871094 10.515625 23.871094 C 10.769531 23.871094 10.980469 23.660156 10.980469 23.398438 L 10.980469 21.371094 C 10.980469 21.109375 10.769531 20.898438 10.515625 20.898438 Z M 10.515625 20.898438 "/>
<path style=" stroke:none;fill-rule:nonzero;fill:#fff;fill-opacity:1;" d="M 10.515625 23.996094 C 10.191406 23.996094 9.925781 23.730469 9.925781 23.398438 L 9.925781 21.371094 C 9.925781 21.039062 10.191406 20.773438 10.515625 20.773438 C 10.839844 20.773438 11.101562 21.039062 11.101562 21.371094 L 11.101562 23.398438 C 11.101562 23.730469 10.839844 23.996094 10.515625 23.996094 Z M 10.515625 21.023438 C 10.328125 21.023438 10.175781 21.179688 10.175781 21.371094 L 10.175781 23.398438 C 10.175781 23.589844 10.328125 23.746094 10.515625 23.746094 C 10.703125 23.746094 10.855469 23.589844 10.855469 23.398438 L 10.855469 21.371094 C 10.855469 21.179688 10.703125 21.023438 10.515625 21.023438 Z M 10.515625 21.023438 "/>
<path style=" stroke:none;fill-rule:nonzero;fill:#fff;fill-opacity:1;" d="M 21.433594 20.898438 C 21.179688 20.898438 20.96875 21.109375 20.96875 21.371094 L 20.96875 23.398438 C 20.96875 23.660156 21.179688 23.871094 21.433594 23.871094 C 21.691406 23.871094 21.898438 23.660156 21.898438 23.398438 L 21.898438 21.371094 C 21.898438 21.109375 21.691406 20.898438 21.433594 20.898438 Z M 21.433594 20.898438 "/>
<path style=" stroke:none;fill-rule:nonzero;fill:#fff;fill-opacity:1;" d="M 21.433594 23.996094 C 21.109375 23.996094 20.847656 23.730469 20.847656 23.398438 L 20.847656 21.371094 C 20.847656 21.039062 21.109375 20.773438 21.433594 20.773438 C 21.757812 20.773438 22.023438 21.039062 22.023438 21.371094 L 22.023438 23.398438 C 22.023438 23.730469 21.757812 23.996094 21.433594 23.996094 Z M 21.433594 21.023438 C 21.246094 21.023438 21.09375 21.179688 21.09375 21.371094 L 21.09375 23.398438 C 21.09375 23.589844 21.246094 23.746094 21.433594 23.746094 C 21.621094 23.746094 21.773438 23.589844 21.773438 23.398438 L 21.773438 21.371094 C 21.773438 21.179688 21.621094 21.023438 21.433594 21.023438 Z M 21.433594 21.023438 "/>
</g>
</svg>
