<?xml version="1.0" encoding="UTF-8"?>
<svg xmlns="http://www.w3.org/2000/svg" xmlns:xlink="http://www.w3.org/1999/xlink" width="25px" height="25px" viewBox="0 0 25 25" version="1.1">
<g id="surface1">
<path style=" stroke:none;fill-rule:nonzero;fill:#fff;fill-opacity:1;" d="M 8.605469 8.933594 L 7.25 8.144531 C 6.988281 8.605469 6.726562 9.074219 6.476562 9.539062 L 7.851562 10.292969 C 8.09375 9.839844 8.347656 9.382812 8.605469 8.933594 Z M 8.605469 8.933594 "/>
<path style=" stroke:none;fill-rule:nonzero;fill:#fff;fill-opacity:1;" d="M 10.207031 6.253906 L 8.878906 5.417969 C 8.609375 5.851562 8.332031 6.304688 8.050781 6.773438 L 9.386719 7.585938 C 9.664062 7.128906 9.9375 6.683594 10.207031 6.253906 Z M 10.207031 6.253906 "/>
<path style=" stroke:none;fill-rule:nonzero;fill:#fff;fill-opacity:1;" d="M 12.492188 0 L 11.859375 0.902344 C 11.695312 1.132812 10.832031 2.371094 9.734375 4.074219 L 11.042969 4.933594 C 11.617188 4.039062 12.125 3.277344 12.5 2.726562 C 14.925781 6.28125 19.527344 13.632812 19.527344 16.589844 C 19.449219 20.433594 16.304688 23.488281 12.5 23.421875 C 8.695312 23.488281 5.550781 20.433594 5.472656 16.589844 C 5.472656 15.878906 5.761719 14.457031 7.140625 11.667969 L 5.742188 10.96875 C 4.511719 13.457031 3.914062 15.296875 3.914062 16.589844 C 3.992188 21.304688 7.832031 25.066406 12.5 25 C 17.167969 25.066406 21.007812 21.304688 21.085938 16.589844 C 21.085938 12.253906 13.949219 2.042969 13.132812 0.890625 Z M 12.492188 0 "/>
<path style=" stroke:none;fill-rule:nonzero;fill:#fff;fill-opacity:1;" d="M 6.253906 5.292969 C 6.253906 3.765625 4.136719 1.300781 3.714844 0.824219 L 3.132812 0.167969 L 2.550781 0.820312 C 2.128906 1.300781 0.0117188 3.761719 0.0117188 5.292969 C 0.0117188 7.03125 1.40625 8.445312 3.132812 8.445312 C 4.855469 8.445312 6.253906 7.03125 6.253906 5.292969 Z M 3.132812 6.867188 C 2.269531 6.867188 1.570312 6.160156 1.570312 5.292969 C 1.570312 4.789062 2.304688 3.617188 3.132812 2.570312 C 3.960938 3.621094 4.695312 4.800781 4.695312 5.292969 C 4.695312 6.160156 3.996094 6.867188 3.132812 6.867188 Z M 3.132812 6.867188 "/>
<path style=" stroke:none;fill-rule:nonzero;fill:#fff;fill-opacity:1;" d="M 22.449219 0.824219 L 21.867188 0.167969 L 21.285156 0.820312 C 20.863281 1.300781 18.746094 3.761719 18.746094 5.292969 C 18.746094 7.03125 20.144531 8.445312 21.867188 8.445312 C 23.59375 8.445312 24.988281 7.03125 24.988281 5.292969 C 24.988281 3.761719 22.871094 1.300781 22.449219 0.824219 Z M 21.867188 6.867188 C 21.003906 6.867188 20.304688 6.160156 20.304688 5.292969 C 20.304688 4.789062 21.039062 3.617188 21.867188 2.570312 C 22.695312 3.621094 23.429688 4.800781 23.429688 5.292969 C 23.429688 6.160156 22.730469 6.867188 21.867188 6.867188 Z M 21.867188 6.867188 "/>
</g>
</svg>
