<?xml version="1.0" encoding="UTF-8"?>
<svg xmlns="http://www.w3.org/2000/svg" xmlns:xlink="http://www.w3.org/1999/xlink" width="25px" height="23px" viewBox="0 0 25 23" version="1.1">
<g id="surface1">
<path style=" stroke:none;fill-rule:nonzero;fill:#fff;fill-opacity:1;" d="M 20.476562 17.402344 C 19.753906 17.273438 19.007812 17.335938 18.316406 17.589844 C 17.25 17.96875 16.445312 18.710938 16.109375 19.574219 L 15.214844 19.523438 L 15.195312 19.523438 C 14.617188 19.503906 13.753906 18.964844 13.304688 18.09375 C 12.949219 17.410156 12.726562 16.285156 13.664062 14.824219 L 20.886719 3.851562 C 20.890625 3.84375 20.894531 3.839844 20.898438 3.832031 C 21.5625 2.757812 21.851562 1.96875 21.582031 0.640625 C 21.492188 0.214844 21.074219 -0.0585938 20.652344 0.0273438 C 20.226562 0.117188 19.953125 0.53125 20.03125 0.964844 C 20.183594 1.726562 20.097656 2.101562 19.5625 2.96875 L 12.34375 13.9375 L 12.339844 13.945312 C 10.910156 16.167969 11.449219 17.964844 11.898438 18.835938 C 12.570312 20.140625 13.902344 21.082031 15.132812 21.125 L 18.429688 21.3125 C 18.445312 21.3125 18.460938 21.3125 18.476562 21.3125 C 18.507812 21.3125 18.535156 21.3125 18.566406 21.308594 C 18.703125 21.320312 18.84375 21.359375 18.921875 21.445312 C 19.027344 21.5625 19.074219 21.8125 19.050781 22.117188 C 19.011719 22.558594 19.335938 22.945312 19.773438 22.984375 C 19.796875 22.984375 19.820312 22.984375 19.839844 22.984375 C 20.25 22.984375 20.59375 22.664062 20.628906 22.25 C 20.691406 21.472656 20.503906 20.820312 20.085938 20.359375 C 19.8125 20.054688 19.300781 19.695312 18.414062 19.695312 C 18.386719 19.695312 18.359375 19.695312 18.335938 19.699219 L 17.917969 19.675781 C 18.152344 19.4375 18.476562 19.234375 18.84375 19.101562 C 19.203125 18.972656 20.460938 18.628906 21.445312 19.671875 C 21.746094 19.988281 22.242188 19.996094 22.554688 19.691406 C 22.871094 19.390625 22.886719 18.886719 22.589844 18.566406 C 22.027344 17.960938 21.285156 17.550781 20.476562 17.402344 Z M 20.476562 17.402344 "/>
<path style=" stroke:none;fill-rule:nonzero;fill:#fff;fill-opacity:1;" d="M 24.851562 18.015625 C 24.847656 18.023438 24.84375 18.03125 24.839844 18.042969 C 24.84375 18.042969 24.847656 18.03125 24.851562 18.015625 Z M 24.851562 18.015625 "/>
<path style=" stroke:none;fill-rule:nonzero;fill:#fff;fill-opacity:1;" d="M 24.652344 15.515625 C 24.410156 14.945312 24.003906 14.46875 23.5 14.121094 C 23.25 13.949219 22.988281 13.804688 22.714844 13.683594 C 22.175781 13.441406 21.628906 13.285156 21.09375 13.148438 L 21.085938 13.144531 C 20.785156 13.070312 20.472656 13.171875 20.277344 13.414062 C 20.082031 13.652344 20.039062 13.988281 20.167969 14.269531 C 20.296875 14.550781 20.574219 14.734375 20.882812 14.738281 C 21.386719 14.746094 21.878906 14.769531 22.34375 14.855469 C 22.804688 14.9375 23.207031 15.128906 23.59375 15.351562 C 24.515625 15.886719 24.875 17.769531 24.851562 18.015625 C 25.121094 17.390625 25.007812 16.179688 24.652344 15.515625 Z M 24.652344 15.515625 "/>
<path style=" stroke:none;fill-rule:nonzero;fill:#fff;fill-opacity:1;" d="M 9.863281 18.941406 C 9.871094 19.382812 9.527344 19.75 9.089844 19.761719 C 8.652344 19.773438 8.289062 19.421875 8.277344 18.976562 C 8.265625 18.535156 8.613281 18.167969 9.050781 18.15625 C 9.488281 18.144531 9.851562 18.496094 9.863281 18.941406 Z M 9.863281 18.941406 "/>
<path style=" stroke:none;fill-rule:nonzero;fill:#fff;fill-opacity:1;" d="M 6.421875 18.265625 C 6.464844 18.707031 6.148438 19.097656 5.714844 19.140625 C 5.277344 19.1875 4.890625 18.863281 4.847656 18.421875 C 4.804688 17.980469 5.121094 17.589844 5.558594 17.542969 C 5.992188 17.5 6.378906 17.824219 6.421875 18.265625 Z M 6.421875 18.265625 "/>
<path style=" stroke:none;fill-rule:nonzero;fill:#fff;fill-opacity:1;" d="M 8.964844 15.378906 C 8.972656 15.824219 8.628906 16.191406 8.191406 16.203125 C 7.753906 16.210938 7.390625 15.863281 7.378906 15.417969 C 7.371094 14.976562 7.714844 14.609375 8.152344 14.597656 C 8.589844 14.585938 8.953125 14.9375 8.964844 15.378906 Z M 8.964844 15.378906 "/>
<path style=" stroke:none;fill-rule:nonzero;fill:#fff;fill-opacity:1;" d="M 5.503906 21.5 C 5.503906 21.945312 5.148438 22.304688 4.710938 22.304688 C 4.273438 22.304688 3.921875 21.945312 3.921875 21.5 C 3.921875 21.058594 4.273438 20.699219 4.710938 20.699219 C 5.148438 20.699219 5.503906 21.058594 5.503906 21.5 Z M 5.503906 21.5 "/>
<path style=" stroke:none;fill-rule:nonzero;fill:#fff;fill-opacity:1;" d="M 12.136719 21.339844 C 12.136719 21.785156 11.78125 22.144531 11.34375 22.144531 C 10.90625 22.144531 10.550781 21.785156 10.550781 21.339844 C 10.550781 20.898438 10.90625 20.539062 11.34375 20.539062 C 11.78125 20.539062 12.136719 20.898438 12.136719 21.339844 Z M 12.136719 21.339844 "/>
<path style=" stroke:none;fill-rule:nonzero;fill:#fff;fill-opacity:1;" d="M 14.960938 22.195312 C 14.960938 22.640625 14.605469 23 14.167969 23 C 13.730469 23 13.375 22.640625 13.375 22.195312 C 13.375 21.753906 13.730469 21.394531 14.167969 21.394531 C 14.605469 21.394531 14.960938 21.753906 14.960938 22.195312 Z M 14.960938 22.195312 "/>
<path style=" stroke:none;fill-rule:nonzero;fill:#fff;fill-opacity:1;" d="M 1.585938 10.957031 C 1.585938 11.402344 1.230469 11.761719 0.792969 11.761719 C 0.355469 11.761719 0 11.402344 0 10.957031 C 0 10.515625 0.355469 10.15625 0.792969 10.15625 C 1.230469 10.15625 1.585938 10.515625 1.585938 10.957031 Z M 1.585938 10.957031 "/>
<path style=" stroke:none;fill-rule:nonzero;fill:#fff;fill-opacity:1;" d="M 8.089844 9.59375 C 8.527344 9.605469 8.871094 9.972656 8.859375 10.417969 C 8.847656 10.859375 8.484375 11.210938 8.046875 11.199219 C 7.609375 11.1875 7.265625 10.816406 7.277344 10.375 C 7.285156 9.929688 7.652344 9.582031 8.089844 9.59375 Z M 8.089844 9.59375 "/>
<path style=" stroke:none;fill-rule:nonzero;fill:#fff;fill-opacity:1;" d="M 4.871094 13.925781 C 4.871094 14.371094 4.515625 14.730469 4.078125 14.730469 C 3.640625 14.730469 3.285156 14.371094 3.285156 13.925781 C 3.285156 13.484375 3.640625 13.125 4.078125 13.125 C 4.515625 13.125 4.871094 13.484375 4.871094 13.925781 Z M 4.871094 13.925781 "/>
<path style=" stroke:none;fill-rule:nonzero;fill:#fff;fill-opacity:1;" d="M 2.097656 18.261719 C 2.097656 18.707031 1.742188 19.066406 1.304688 19.066406 C 0.867188 19.066406 0.511719 18.707031 0.511719 18.261719 C 0.511719 17.820312 0.867188 17.460938 1.304688 17.460938 C 1.742188 17.460938 2.097656 17.820312 2.097656 18.261719 Z M 2.097656 18.261719 "/>
<path style=" stroke:none;fill-rule:nonzero;fill:#fff;fill-opacity:1;" d="M 5.265625 7.183594 C 5.265625 7.628906 4.914062 7.988281 4.472656 7.988281 C 4.035156 7.988281 3.683594 7.628906 3.683594 7.183594 C 3.683594 6.742188 4.035156 6.382812 4.472656 6.382812 C 4.914062 6.382812 5.265625 6.742188 5.265625 7.183594 Z M 5.265625 7.183594 "/>
<path style=" stroke:none;fill-rule:nonzero;fill:#fff;fill-opacity:1;" d="M 8.429688 21.289062 C 8.867188 21.300781 9.210938 21.667969 9.199219 22.113281 C 9.1875 22.554688 8.824219 22.90625 8.386719 22.894531 C 7.949219 22.882812 7.605469 22.511719 7.617188 22.070312 C 7.628906 21.625 7.992188 21.277344 8.429688 21.289062 Z M 8.429688 21.289062 "/>
</g>
</svg>
