<?xml version="1.0" encoding="UTF-8"?>
<svg xmlns="http://www.w3.org/2000/svg" xmlns:xlink="http://www.w3.org/1999/xlink" width="26px" height="30px" viewBox="0 0 26 30" version="1.1">
<g id="surface1">
<path style=" stroke:none;fill-rule:nonzero;fill:#fff;fill-opacity:1;" d="M 25.464844 6.257812 L 13.28125 0.28125 C 13.195312 0.238281 13.101562 0.214844 13.007812 0.214844 L 12.992188 0.214844 C 12.898438 0.214844 12.800781 0.238281 12.71875 0.28125 L 0.535156 6.257812 C 0.335938 6.359375 0.207031 6.558594 0.207031 6.773438 L 0.207031 17.59375 C 0.207031 19.699219 0.863281 21.484375 2.203125 23.039062 C 3.449219 24.484375 5.125 25.535156 6.597656 26.375 C 9.644531 28.105469 12.683594 29.699219 12.714844 29.714844 C 12.800781 29.761719 12.898438 29.785156 12.996094 29.785156 L 13.003906 29.785156 C 13.101562 29.785156 13.199219 29.761719 13.285156 29.714844 C 13.316406 29.699219 16.359375 28.105469 19.402344 26.375 C 19.683594 26.214844 19.78125 25.859375 19.613281 25.585938 C 19.449219 25.308594 19.085938 25.214844 18.800781 25.378906 C 16.308594 26.796875 13.816406 28.121094 13 28.554688 C 12.183594 28.121094 9.691406 26.796875 7.199219 25.378906 C 4.390625 23.78125 1.398438 21.730469 1.398438 17.59375 L 1.398438 7.128906 L 13 1.4375 L 24.601562 7.128906 L 24.601562 17.59375 C 24.601562 19.714844 23.871094 21.410156 22.296875 22.917969 C 22.066406 23.144531 22.070312 23.503906 22.296875 23.730469 C 22.523438 23.953125 22.894531 23.957031 23.128906 23.742188 C 24.921875 22.023438 25.792969 20.011719 25.792969 17.59375 L 25.792969 6.773438 C 25.792969 6.558594 25.664062 6.359375 25.464844 6.257812 Z M 25.464844 6.257812 "/>
<path style=" stroke:none;fill-rule:nonzero;fill:#fff;fill-opacity:1;" d="M 13.003906 29.988281 L 12.996094 29.988281 C 12.863281 29.988281 12.730469 29.957031 12.613281 29.894531 C 12.488281 29.828125 9.515625 28.265625 6.492188 26.550781 C 5.003906 25.703125 3.308594 24.636719 2.042969 23.171875 C 0.667969 21.574219 0 19.75 0 17.59375 L 0 6.773438 C 0 6.480469 0.171875 6.214844 0.441406 6.082031 L 12.625 0.101562 C 12.738281 0.0429688 12.863281 0.0117188 12.992188 0.0117188 L 13.015625 0.0117188 C 13.140625 0.015625 13.265625 0.0429688 13.378906 0.101562 L 25.558594 6.078125 C 25.828125 6.207031 26 6.476562 26 6.769531 L 26 17.585938 C 26 20.0625 25.109375 22.121094 23.277344 23.878906 C 22.960938 24.183594 22.453125 24.179688 22.140625 23.875 C 21.828125 23.566406 21.832031 23.074219 22.148438 22.769531 C 23.679688 21.300781 24.394531 19.652344 24.394531 17.585938 L 24.394531 7.25 L 13 1.664062 L 1.605469 7.253906 L 1.605469 17.59375 C 1.605469 21.625 4.546875 23.636719 7.304688 25.203125 C 9.667969 26.546875 12.007812 27.796875 13 28.324219 C 13.992188 27.796875 16.328125 26.546875 18.695312 25.203125 C 18.941406 25.058594 19.25 25.054688 19.5 25.195312 C 19.753906 25.332031 19.910156 25.589844 19.910156 25.871094 C 19.910156 26.152344 19.757812 26.410156 19.503906 26.550781 C 16.453125 28.285156 13.414062 29.878906 13.382812 29.894531 C 13.265625 29.957031 13.136719 29.988281 13.003906 29.988281 Z M 12.996094 0.417969 C 12.933594 0.417969 12.871094 0.429688 12.816406 0.460938 L 0.628906 6.441406 C 0.496094 6.503906 0.414062 6.632812 0.417969 6.773438 L 0.417969 17.59375 C 0.417969 19.648438 1.054688 21.390625 2.363281 22.910156 C 3.585938 24.328125 5.242188 25.371094 6.703125 26.199219 C 9.71875 27.914062 12.6875 29.472656 12.8125 29.539062 C 12.867188 29.566406 12.929688 29.582031 12.996094 29.582031 L 13.003906 29.582031 C 13.066406 29.582031 13.128906 29.566406 13.1875 29.539062 C 13.214844 29.523438 16.246094 27.933594 19.292969 26.199219 C 19.417969 26.132812 19.492188 26.007812 19.492188 25.871094 C 19.492188 25.738281 19.417969 25.609375 19.296875 25.542969 C 19.171875 25.476562 19.023438 25.480469 18.90625 25.550781 C 16.453125 26.949219 14.03125 28.242188 13.097656 28.730469 L 13 28.78125 L 12.898438 28.730469 C 11.96875 28.238281 9.546875 26.945312 7.09375 25.550781 C 4.238281 23.925781 1.1875 21.839844 1.1875 17.59375 L 1.1875 7.003906 L 13 1.210938 L 24.8125 7.003906 L 24.8125 17.59375 C 24.8125 19.773438 24.058594 21.511719 22.441406 23.0625 C 22.289062 23.207031 22.289062 23.445312 22.4375 23.59375 C 22.585938 23.742188 22.832031 23.742188 22.984375 23.597656 C 24.734375 21.917969 25.582031 19.953125 25.582031 17.589844 L 25.582031 6.773438 C 25.585938 6.632812 25.503906 6.503906 25.371094 6.441406 L 13.1875 0.460938 C 13.132812 0.433594 13.070312 0.417969 13.007812 0.417969 Z M 12.996094 0.417969 "/>
<path style=" stroke:none;fill-rule:nonzero;fill:#fff;fill-opacity:1;" d="M 21.429688 24.289062 C 21.226562 24.09375 20.914062 24.0625 20.675781 24.21875 C 20.441406 24.371094 20.351562 24.664062 20.460938 24.917969 C 20.570312 25.171875 20.847656 25.316406 21.125 25.265625 C 21.402344 25.210938 21.601562 24.972656 21.601562 24.695312 C 21.601562 24.542969 21.539062 24.398438 21.429688 24.289062 Z M 21.429688 24.289062 "/>
<path style=" stroke:none;fill-rule:nonzero;fill:#fff;fill-opacity:1;" d="M 21.007812 25.304688 C 20.710938 25.304688 20.453125 25.097656 20.394531 24.816406 C 20.335938 24.53125 20.492188 24.246094 20.769531 24.132812 C 21.042969 24.023438 21.363281 24.117188 21.527344 24.359375 C 21.695312 24.597656 21.660156 24.921875 21.449219 25.125 C 21.332031 25.238281 21.171875 25.300781 21.007812 25.304688 Z M 21.007812 24.148438 C 20.738281 24.148438 20.507812 24.332031 20.453125 24.589844 C 20.402344 24.847656 20.542969 25.105469 20.792969 25.203125 C 21.042969 25.304688 21.328125 25.21875 21.476562 25.003906 C 21.628906 24.785156 21.597656 24.492188 21.40625 24.308594 C 21.300781 24.207031 21.15625 24.148438 21.007812 24.148438 Z M 21.007812 24.148438 "/>
<path style=" stroke:none;fill-rule:nonzero;fill:#fff;fill-opacity:1;" d="M 8.910156 19.488281 L 8.910156 19.199219 C 8.910156 18.972656 9.027344 18.761719 9.21875 18.636719 C 9.410156 18.511719 9.652344 18.488281 9.867188 18.570312 C 10.660156 18.878906 11.507812 19.03125 12.359375 19.027344 C 13.277344 19.027344 14.03125 18.800781 14.640625 18.363281 C 15.269531 17.910156 15.574219 17.316406 15.574219 16.566406 C 15.574219 15.152344 14.335938 14.140625 12.414062 14.140625 C 11.730469 14.144531 11.046875 14.226562 10.382812 14.382812 C 10.160156 14.433594 9.925781 14.375 9.753906 14.226562 C 9.585938 14.078125 9.503906 13.859375 9.53125 13.640625 L 10.148438 8.890625 C 10.191406 8.554688 10.488281 8.300781 10.835938 8.300781 L 15.988281 8.300781 C 16.371094 8.300781 16.683594 8.605469 16.683594 8.976562 L 16.683594 9.296875 C 16.683594 9.671875 16.371094 9.972656 15.988281 9.972656 L 12.273438 9.972656 C 11.921875 9.972656 11.625 10.230469 11.582031 10.570312 L 11.414062 11.867188 C 11.386719 12.070312 11.457031 12.277344 11.605469 12.425781 C 11.753906 12.570312 11.960938 12.644531 12.171875 12.625 C 12.40625 12.601562 12.640625 12.589844 12.878906 12.589844 C 14.246094 12.589844 15.355469 12.957031 16.234375 13.6875 C 17.113281 14.417969 17.5625 15.378906 17.5625 16.566406 C 17.5625 17.835938 17.078125 18.851562 16.089844 19.601562 C 15.121094 20.351562 13.898438 20.734375 12.445312 20.734375 C 11.277344 20.734375 10.226562 20.523438 9.3125 20.101562 C 9.070312 19.988281 8.914062 19.75 8.910156 19.488281 Z M 8.910156 19.488281 "/>
<path style=" stroke:none;fill-rule:nonzero;fill:#fff;fill-opacity:1;" d="M 12.449219 20.765625 C 11.273438 20.765625 10.21875 20.550781 9.300781 20.128906 C 9.046875 20.011719 8.882812 19.761719 8.882812 19.488281 L 8.882812 19.199219 C 8.882812 18.964844 9.003906 18.742188 9.203125 18.613281 C 9.402344 18.480469 9.65625 18.453125 9.875 18.542969 C 10.667969 18.847656 11.507812 19 12.359375 18.996094 C 13.25 18.996094 14.007812 18.773438 14.621094 18.339844 C 15.242188 17.890625 15.542969 17.3125 15.542969 16.566406 C 15.542969 15.132812 14.285156 14.171875 12.410156 14.171875 C 11.730469 14.171875 11.050781 14.253906 10.386719 14.410156 C 10.15625 14.46875 9.914062 14.40625 9.738281 14.253906 C 9.558594 14.097656 9.46875 13.867188 9.5 13.636719 L 10.113281 8.886719 C 10.160156 8.535156 10.472656 8.269531 10.835938 8.269531 L 15.988281 8.269531 C 16.386719 8.273438 16.714844 8.589844 16.714844 8.976562 L 16.714844 9.296875 C 16.714844 9.6875 16.386719 10.003906 15.988281 10.003906 L 12.273438 10.003906 C 11.9375 10.003906 11.652344 10.25 11.613281 10.574219 L 11.445312 11.871094 C 11.417969 12.070312 11.488281 12.265625 11.632812 12.410156 C 11.773438 12.550781 11.972656 12.617188 12.171875 12.597656 C 12.40625 12.574219 12.644531 12.5625 12.878906 12.5625 C 14.238281 12.5625 15.375 12.933594 16.253906 13.667969 C 17.132812 14.402344 17.597656 15.382812 17.597656 16.566406 C 17.597656 17.847656 17.097656 18.878906 16.113281 19.625 C 15.128906 20.371094 13.898438 20.765625 12.449219 20.765625 Z M 9.605469 18.550781 C 9.472656 18.550781 9.34375 18.589844 9.238281 18.664062 C 9.050781 18.785156 8.941406 18.984375 8.9375 19.203125 L 8.9375 19.492188 C 8.941406 19.742188 9.089844 19.972656 9.328125 20.082031 C 10.230469 20.5 11.28125 20.710938 12.445312 20.710938 C 13.886719 20.710938 15.105469 20.332031 16.074219 19.582031 C 17.042969 18.839844 17.539062 17.828125 17.539062 16.566406 C 17.539062 15.398438 17.09375 14.441406 16.21875 13.710938 C 15.34375 12.984375 14.246094 12.621094 12.882812 12.621094 C 12.648438 12.617188 12.414062 12.628906 12.179688 12.65625 C 11.960938 12.675781 11.746094 12.601562 11.59375 12.449219 C 11.4375 12.292969 11.363281 12.078125 11.390625 11.863281 L 11.554688 10.566406 C 11.601562 10.214844 11.910156 9.949219 12.273438 9.945312 L 15.988281 9.945312 C 16.355469 9.945312 16.652344 9.65625 16.65625 9.296875 L 16.65625 8.980469 C 16.65625 8.621094 16.355469 8.328125 15.988281 8.328125 L 10.835938 8.328125 C 10.5 8.328125 10.21875 8.574219 10.175781 8.898438 L 9.558594 13.644531 C 9.53125 13.855469 9.613281 14.066406 9.777344 14.210938 C 9.9375 14.351562 10.160156 14.40625 10.371094 14.355469 C 11.039062 14.199219 11.722656 14.117188 12.410156 14.113281 C 14.320312 14.113281 15.601562 15.097656 15.601562 16.566406 C 15.601562 17.332031 15.292969 17.925781 14.65625 18.382812 C 14.035156 18.828125 13.261719 19.054688 12.359375 19.054688 C 11.5 19.058594 10.652344 18.902344 9.855469 18.59375 C 9.773438 18.566406 9.691406 18.550781 9.605469 18.550781 Z M 9.605469 18.550781 "/>
</g>
</svg>
