<svg xmlns="http://www.w3.org/2000/svg" viewBox="0 0 204.73 216.73"><defs><style>.cls-1{fill:#2d51a0;}.cls-1,.cls-2,.cls-3{fill-rule:evenodd;}.cls-2{fill:#007bc2;}.cls-3{fill:#b3b2b2;}.cls-4{fill:#fff;}</style></defs><title>5 лет</title><g id="Слой_2" data-name="Слой 2"><g id="_1" data-name="1"><path class="cls-1" d="M101.9,205.39l77.62-42.92,15-119.59L102,11.44c-.33,1.06-.09,43.32-.09,48.27V193.15C101.88,197.1,101.69,201.5,101.9,205.39Z"/><path class="cls-2" d="M101.9,205.39c-.21-3.89,0-8.29,0-12.24V59.71c0-5-.24-47.21.09-48.27-.56-.22-20.1,7-22.5,7.83-7.57,2.65-15.08,5.4-22.63,8.08l-34,12.1c-3.67,1.33-7.6,2.85-11.32,4,.19,4.33,1.09,9.64,1.59,14.05L25,160c.12,1,0,2.78.72,3.29l55.75,30.9C83.23,195.09,100.71,205,101.9,205.39Z"/><path class="cls-3" d="M101.9,205.39c-1.19-.36-18.67-10.3-20.45-11.25L25.7,163.24C25,162.73,25.1,161,25,160L13.15,57.53c-.5-4.41-1.4-9.72-1.59-14.05,3.72-1.18,7.65-2.7,11.32-4l34-12.1c7.55-2.68,15.06-5.43,22.63-8.08,2.4-.84,21.94-8,22.5-7.83l92.58,31.44-15,119.59L101.9,205.39ZM0,35.76l1,8.31c.39,2.84.68,5.55,1,8.33l4,33.44c.32,2.74.6,5.47,1,8.32s.74,5.65,1,8.49c.12,1.29.37,2.77.52,4.06l7.51,62.86c.95.22,4.11,2.25,5.36,2.87,3.95,1.95,9.29,5.2,13.47,7.37l18.74,10.31c1.83,1.09,3.58,1.93,5.44,3l14.63,8c.55.31.84.51,1.4.79l27.05,14.8,19.93-11c3.43-1.78,7.85-4.45,11.39-6.34l25.78-14.26c3.24-1.63,8.09-4.66,11.39-6.34L184.91,171c1-.61,1.89-1.08,3-1.62s1-1.5,1.15-3.24c.15-1.32.34-2.87.5-4.08,1.39-10.53,2.37-21.08,3.81-31.64l5.73-47.65c.61-5.31,1.19-10.52,1.9-15.83L204.73,35a64.45,64.45,0,0,1-6.46-2.12c-23.37-7.73-47.18-16.43-70.52-24.18l-15.9-5.48-3.29-1.09c-8.62-2.86-4.29-2.9-12.94,0-6.1,2-13,4.73-19.05,6.72l-12.7,4.48c-6.14,2-12.95,4.58-19.2,6.76L31.94,24.56C28.27,26,23,27.61,19.22,29Z"/><path class="cls-4" d="M73.83,106.55V88a40.65,40.65,0,0,0,21.55,6.55c8.11,0,14.33-3.22,14.33-10.44,0-6.33-5.44-10.44-14.77-10.44a59.11,59.11,0,0,0-18.67,3.55l5.11-44.43h43.1v17H96.16l-1,8.55a25.77,25.77,0,0,1,4.77-.45c8.78,0,15.89,2.45,21.44,7.22s8.45,11.11,8.45,19c0,9-3.22,15.89-9.67,20.77s-14.33,7.22-23.77,7.22A45.19,45.19,0,0,1,73.83,106.55Z"/><path class="cls-4" d="M83,142.28v-3.14a2.31,2.31,0,0,0,1,.25c.66,0,1.08-.4,1.27-1.22a25.24,25.24,0,0,0,.34-5l0-4h10v13.32H92.2V132.12H89l0,1.47q-.13,5.32-1,7a3.69,3.69,0,0,1-3.47,2A3.18,3.18,0,0,1,83,142.28Z"/><path class="cls-4" d="M98.18,142.43V129.11H108.3v3h-6.7v1.81h5.33v2.89H101.6v2.61h6.85v3Z"/><path class="cls-4" d="M113.65,142.43V132.12h-4v-3h11.44v3h-4v10.31Z"/><path class="cls-4" d="M50.24,165.27V152h9.84v3H53.67v10.31Z"/><path class="cls-4" d="M58.28,165.27l5.59-13.39h3.29l5.6,13.39H69.08L68,162.46H63l-1.12,2.81Zm5.82-5.55h2.78l-1.39-3.56Z"/><path class="cls-4" d="M74.22,165.27V152h5.94a5.14,5.14,0,0,1,3.54,1.16,4.12,4.12,0,0,1,0,6,5.09,5.09,0,0,1-3.54,1.17H77.65v5Zm3.43-7.78h2.26c1,0,1.64-.5,1.64-1.33s-.63-1.32-1.64-1.32H77.65Z"/><path class="cls-4" d="M84.12,165.27l5.6-13.39H93l5.59,13.39H94.93l-1.12-2.81h-5l-1.12,2.81Zm5.82-5.55h2.78l-1.39-3.56Z"/><path class="cls-4" d="M100.07,165.27V152h3.43v4.74h5V152h3.42v13.32h-3.42v-5.54h-5v5.54Z"/><path class="cls-4" d="M117.75,165.27V155h-4v-3h11.43v3h-4v10.31Z"/><path class="cls-4" d="M127,165.27V152h3.43v7.52l5.5-7.52h3v13.32h-3.42v-7.59l-5.6,7.59Z"/><path class="cls-4" d="M141.45,165.27V152h3.42v7.52l5.5-7.52h3v13.32h-3.43v-7.59l-5.59,7.59Z"/></g></g></svg>