<?xml version="1.0" encoding="UTF-8"?>
<svg xmlns="http://www.w3.org/2000/svg" xmlns:xlink="http://www.w3.org/1999/xlink" width="64px" height="15px" viewBox="0 0 64 15" version="1.1">
<g id="surface1">
<path style=" stroke:none;fill-rule:nonzero;fill:#05a541;fill-opacity:1;" d="M 64 8.226562 L 57.65625 14.679688 C 57.464844 14.875 57.207031 14.984375 56.933594 14.984375 C 56.523438 14.984375 56.152344 14.734375 55.996094 14.347656 C 55.839844 13.964844 55.925781 13.519531 56.214844 13.226562 L 60.824219 8.53125 L 0.929688 8.707031 C 0.46875 8.691406 0.078125 8.347656 0 7.886719 C -0.0234375 7.621094 0.0625 7.355469 0.238281 7.152344 C 0.410156 6.949219 0.65625 6.824219 0.921875 6.8125 L 60.824219 6.46875 L 56.214844 1.773438 C 55.9375 1.519531 55.820312 1.128906 55.914062 0.757812 C 56.003906 0.390625 56.289062 0.101562 56.65625 0.0078125 C 57.019531 -0.0820312 57.402344 0.0351562 57.65625 0.320312 L 64 6.773438 Z M 64 8.226562 "/>
</g>
</svg>
