<?xml version="1.0" encoding="UTF-8"?>
<svg xmlns="http://www.w3.org/2000/svg" xmlns:xlink="http://www.w3.org/1999/xlink" width="17px" height="13px" viewBox="0 0 17 13" version="1.1">
<g id="surface1">
<path style=" stroke:none;fill-rule:nonzero;fill:#fff;fill-opacity:1;" d="M 16.738281 7.132812 L 11.160156 12.734375 C 10.941406 12.980469 10.601562 13.085938 10.28125 13.003906 C 9.960938 12.925781 9.710938 12.675781 9.628906 12.355469 C 9.550781 12.035156 9.652344 11.695312 9.894531 11.472656 L 13.949219 7.398438 L 0.894531 7.398438 C 0.402344 7.398438 0 6.996094 0 6.5 C 0 6.003906 0.402344 5.601562 0.894531 5.601562 L 13.949219 5.601562 L 9.894531 1.527344 C 9.652344 1.304688 9.550781 0.964844 9.628906 0.644531 C 9.710938 0.324219 9.960938 0.0742188 10.28125 -0.00390625 C 10.601562 -0.0859375 10.941406 0.0195312 11.160156 0.265625 L 16.738281 5.867188 C 17.085938 6.21875 17.085938 6.78125 16.738281 7.132812 Z M 16.738281 7.132812 "/>
</g>
</svg>
