<?xml version="1.0" encoding="UTF-8"?>
<svg xmlns="http://www.w3.org/2000/svg" xmlns:xlink="http://www.w3.org/1999/xlink" width="150px" height="78px" viewBox="0 0 150 78" version="1.1">
<g id="surface1">
<path style=" stroke:none;fill-rule:nonzero;fill:#fff;fill-opacity:1;" d="M 20.871094 4.121094 L 20.871094 47.625 C 20.871094 54.703125 23.414062 58.253906 28.507812 58.269531 C 30.554688 58.296875 32.527344 57.492188 33.980469 56.042969 C 35.449219 54.652344 36.273438 52.699219 36.246094 50.667969 C 36.289062 48.652344 35.519531 46.703125 34.105469 45.269531 C 32.796875 43.84375 30.949219 43.035156 29.015625 43.042969 C 27.164062 43.152344 25.390625 43.820312 23.925781 44.960938 L 23.925781 23.03125 C 26.242188 22.828125 28.023438 22.722656 29.21875 22.722656 C 36.425781 22.605469 43.355469 25.496094 48.363281 30.707031 C 53.574219 35.851562 56.460938 42.917969 56.355469 50.261719 C 56.507812 57.671875 53.5625 64.8125 48.234375 69.9375 C 42.945312 75.230469 35.738281 78.125 28.277344 77.949219 C 24.277344 77.964844 20.320312 77.089844 16.695312 75.390625 C 13.097656 73.789062 9.910156 71.382812 7.378906 68.351562 C 2.957031 62.6875 0.699219 55.613281 1.015625 48.417969 L 1.015625 4.121094 Z M 85.015625 23.746094 L 85.015625 76.925781 L 65.058594 76.925781 L 65.058594 23.746094 Z M 75.039062 0 C 77.644531 -0.0351562 80.15625 1 81.988281 2.867188 C 83.914062 4.566406 85.015625 7.019531 85.015625 9.597656 C 85.109375 12.167969 84.097656 14.65625 82.242188 16.429688 C 78.136719 19.980469 72.066406 19.980469 67.960938 16.429688 C 66.105469 14.65625 65.09375 12.167969 65.1875 9.597656 C 65.167969 7.03125 66.242188 4.582031 68.140625 2.867188 C 69.960938 1.015625 72.449219 -0.0195312 75.039062 0 Z M 121.644531 22.621094 C 128.941406 22.492188 135.957031 25.421875 141.015625 30.707031 C 146.253906 35.816406 149.164062 42.871094 149.0625 50.207031 C 149.171875 57.605469 146.222656 64.714844 140.914062 69.835938 C 130.011719 80.648438 112.492188 80.648438 101.585938 69.835938 C 96.265625 64.734375 93.300781 57.628906 93.417969 50.234375 C 93.269531 42.871094 96.207031 35.785156 101.511719 30.707031 C 106.875 25.421875 114.136719 22.542969 121.644531 22.722656 Z M 121.136719 42.300781 C 119.082031 42.265625 117.109375 43.113281 115.714844 44.628906 C 112.742188 47.820312 112.742188 52.777344 115.714844 55.964844 C 117.117188 57.472656 119.074219 58.324219 121.125 58.324219 C 123.175781 58.324219 125.132812 57.472656 126.535156 55.964844 C 129.515625 52.78125 129.515625 47.8125 126.535156 44.628906 C 125.136719 43.132812 123.179688 42.289062 121.136719 42.300781 Z M 121.136719 42.300781 "/>
</g>
</svg>
