<svg xmlns="http://www.w3.org/2000/svg" xmlns:xlink="http://www.w3.org/1999/xlink" width="192" height="176" viewBox="0 0 192 176"><defs><path id="m7wta" d="M779.7 4125.06c.68 5.72.02 10.83-2 15.19-2.7 5.86-7.89 10.33-15.55 12.97-5.12 1.77-11.35 2.73-18.7 2.74-10.57.01-19.19-1.58-26.55-4.02-20.34-6.71-31.13-19.81-47.3-23.02a1.34 1.34 0 0 1-1-1.86 25.38 25.38 0 0 1 8.66-10.6c.93-.67.73-2-.34-2.38-16.43-5.77-28.85-14.05-37.26-24.85a1.34 1.34 0 0 1 .3-1.93l14.93-10.44c.77-.53.8-1.59.06-2.17-28.69-22.48-25.65-45.18-37.94-69.97a1.33 1.33 0 0 1 1.11-1.95c35.74-3.3 59.9-17.78 94.08 1.26.94.52 2.03-.08 2.06-1.14.12-4.06 1-7.78 2.64-11.16 1.96-4.06 5.01-7.62 9.16-10.7a1.39 1.39 0 0 1 1.97.32c9.61 13.97 22.4 19.36 34.12 28.24 5.58 4.22 10.91 9.23 15.56 16.33a67.22 67.22 0 0 1 4.08 7.2 1.37 1.37 0 0 0 2.38.18l5.6-8.08c.49-.71 1.5-.8 2.12-.2 20.08 19.98 26.3 81.74-11.39 98.65-.56.25-.88.79-.8 1.39zm-49.82-51.1c.78-.88 1.5-1.8 2.18-2.75a1.38 1.38 0 0 1 2.08-.2c9.93 9.15 19.3 20.05 28.01 32.72.68.99 1.36 1.99 2.03 3 .45.68.21 1.58-.52 1.95-.49.25-.99.48-1.51.68a25.3 25.3 0 0 1-7.77 1.64c-5.6.36-12.06-.59-18.93-2.45a2.91 2.91 0 0 0-3.58 1.99 2.86 2.86 0 0 0 2.03 3.52c7.47 2.03 14.58 3.05 20.85 2.65 2.61-.17 5.1-.6 7.4-1.29 1.69-.5 3.29-1.17 4.78-1.98a1.4 1.4 0 0 1 1.85.48c1.6 2.6 3.17 5.26 4.72 7.98a2.93 2.93 0 0 0 3.95 1.12l.26-.16c1.2-.82 1.6-2.44.87-3.73l-.87-1.52a245.87 245.87 0 0 0-15.56-23.8 191.89 191.89 0 0 0-25.7-28.48 1.31 1.31 0 0 1-.36-1.5 39.26 39.26 0 0 0 2.49-9.91c.67-5.62.26-11.79-1.4-18.33a2.92 2.92 0 0 0-3.54-2.08 2.86 2.86 0 0 0-2.11 3.47 44.69 44.69 0 0 1 1.27 16.29c-.23 1.9-.6 3.73-1.1 5.48a1.37 1.37 0 0 1-2.2.68 154.28 154.28 0 0 0-12.6-9.1c-18.33-11.85-38.1-18.82-58.84-21.02a2.9 2.9 0 0 0-3.2 2.54 2.87 2.87 0 0 0 2.58 3.15c21.04 2.23 41.04 9.59 59.46 22.21a139.97 139.97 0 0 1 10.72 8.1c.54.44.65 1.2.27 1.77a28.56 28.56 0 0 1-11 9.76 32.38 32.38 0 0 1-6.94 2.56 40.68 40.68 0 0 1-14.38.77 2.9 2.9 0 0 0-3.22 2.52 2.87 2.87 0 0 0 2.56 3.17c5.9.67 11.43.33 16.45-.9a39.26 39.26 0 0 0 5.54-1.81c5.09-2.1 9.48-5.22 12.98-9.19zm32.94 10.3a39.94 39.94 0 0 0 3.82-12.31c.58-4.2.46-8.53-.34-12.96a2.9 2.9 0 0 0-4.15-2.06 2.85 2.85 0 0 0-1.57 3.07c.7 3.83.8 7.56.3 11.19a34.4 34.4 0 0 1-3.3 10.58 2.84 2.84 0 0 0 1.37 3.82 2.95 2.95 0 0 0 3.87-1.33zm19.22 8.72c.84-3.97 1.16-8.5 1.1-13.48a2.88 2.88 0 0 0-2.92-2.84 2.9 2.9 0 0 0-2.51 1.47c-.24.42-.37.9-.37 1.4.05 4.59-.23 8.72-.99 12.29-.71 3.37-1.84 6.2-3.51 8.38a2.83 2.83 0 0 0 .58 4c1.28.94 3.1.68 4.06-.58l.23-.3c2.08-2.84 3.48-6.32 4.33-10.34z"/></defs><g><g transform="translate(-616 -3980)"><use fill="#05b346" xlink:href="#m7wta"/></g></g></svg>