<?xml version="1.0" encoding="UTF-8"?>
<svg xmlns="http://www.w3.org/2000/svg" xmlns:xlink="http://www.w3.org/1999/xlink" width="21px" height="21px" viewBox="0 0 21 21" version="1.1">
<g id="surface1">
<path style=" stroke:none;fill-rule:nonzero;fill:#a6c42a;fill-opacity:1;" d="M 20.050781 17.3125 C 19.527344 17.3125 19.101562 16.90625 19.101562 16.402344 C 19.101562 13.941406 15.191406 11.863281 10.558594 11.863281 C 5.925781 11.863281 2.015625 13.941406 2.015625 16.402344 C 2.015625 16.90625 1.59375 17.3125 1.066406 17.3125 C 0.542969 17.3125 0.117188 16.90625 0.117188 16.402344 C 0.117188 12.839844 4.703125 10.046875 10.558594 10.046875 C 16.414062 10.046875 21 12.839844 21 16.402344 C 21 16.90625 20.574219 17.3125 20.050781 17.3125 Z M 20.050781 17.3125 "/>
<path style=" stroke:none;fill-rule:nonzero;fill:#a6c42a;fill-opacity:1;" d="M 10.558594 11.863281 C 7.152344 11.863281 4.390625 9.222656 4.390625 5.960938 C 4.390625 2.703125 7.152344 0.0625 10.558594 0.0625 C 13.964844 0.0625 16.730469 2.703125 16.730469 5.960938 C 16.730469 9.222656 13.964844 11.863281 10.558594 11.863281 Z M 10.558594 1.878906 C 8.199219 1.878906 6.289062 3.707031 6.289062 5.960938 C 6.289062 8.21875 8.199219 10.046875 10.558594 10.046875 C 12.917969 10.046875 14.832031 8.21875 14.832031 5.960938 C 14.832031 3.707031 12.917969 1.878906 10.558594 1.878906 Z M 10.558594 1.878906 "/>
<path style=" stroke:none;fill-rule:nonzero;fill:#a6c42a;fill-opacity:1;" d="M 19.5625 20.941406 L 1.554688 20.941406 C 0.699219 20.871094 0.03125 20.203125 0 19.382812 L 0 16.402344 C 0 15.902344 0.425781 15.496094 0.949219 15.496094 C 1.472656 15.496094 1.898438 15.902344 1.898438 16.402344 L 1.898438 19.128906 L 18.984375 19.128906 L 18.984375 16.402344 C 18.984375 15.902344 19.40625 15.496094 19.933594 15.496094 C 20.457031 15.496094 20.882812 15.902344 20.882812 16.402344 L 20.882812 19.386719 C 20.882812 20.296875 20.339844 20.941406 19.5625 20.941406 Z M 19.5625 20.941406 "/>
</g>
</svg>
