<?xml version="1.0" encoding="UTF-8"?>
<svg xmlns="http://www.w3.org/2000/svg" xmlns:xlink="http://www.w3.org/1999/xlink" width="123px" height="52px" viewBox="0 0 123 52" version="1.1">
<g id="surface1">
<path style=" stroke:none;fill-rule:nonzero;fill:#a6c42a;fill-opacity:1;" d="M 111.976562 51.855469 L 111.976562 47.757812 L 116.136719 47.757812 C 116.328125 47.773438 116.515625 47.773438 116.703125 47.757812 C 116.914062 47.730469 117.117188 47.652344 117.292969 47.527344 C 117.445312 47.40625 117.550781 47.234375 117.597656 47.046875 C 117.636719 46.882812 117.652344 46.710938 117.644531 46.542969 L 117.644531 41.179688 C 117.644531 41.09375 117.578125 41.023438 117.492188 41.019531 L 111.945312 41.019531 L 111.945312 36.839844 L 117.492188 36.839844 C 117.535156 36.839844 117.574219 36.820312 117.601562 36.792969 C 117.632812 36.761719 117.648438 36.71875 117.644531 36.679688 L 117.644531 35.148438 C 117.652344 34.765625 117.613281 34.386719 117.53125 34.011719 C 117.441406 33.59375 117.25 33.207031 116.972656 32.878906 C 116.753906 32.597656 116.476562 32.363281 116.160156 32.199219 C 115.875 32.054688 115.566406 31.953125 115.25 31.898438 C 114.964844 31.847656 114.675781 31.824219 114.386719 31.832031 L 111.953125 31.832031 L 111.953125 27.742188 L 116.199219 27.742188 C 117.175781 27.738281 118.144531 27.910156 119.058594 28.246094 C 119.46875 28.402344 119.863281 28.597656 120.238281 28.828125 C 120.296875 28.867188 120.324219 28.9375 120.308594 29.003906 C 119.871094 30.535156 120.054688 32.511719 118.890625 33.90625 C 118.878906 33.929688 118.882812 33.960938 118.898438 33.980469 C 118.914062 34.003906 118.941406 34.011719 118.96875 34.007812 C 120.125 33.484375 121.34375 33.121094 122.59375 32.925781 C 122.636719 32.917969 122.679688 32.925781 122.710938 32.949219 C 122.746094 32.972656 122.769531 33.007812 122.777344 33.046875 C 122.90625 33.789062 122.972656 34.539062 122.976562 35.292969 L 122.976562 47.804688 C 122.980469 48.136719 122.960938 48.464844 122.921875 48.792969 C 122.875 49.171875 122.78125 49.542969 122.648438 49.902344 C 122.507812 50.273438 122.296875 50.609375 122.019531 50.890625 C 121.738281 51.167969 121.402344 51.378906 121.035156 51.519531 C 120.664062 51.652344 120.277344 51.742188 119.886719 51.785156 C 119.488281 51.785156 119.121094 51.839844 118.714844 51.839844 Z M 111.976562 27.742188 L 111.976562 31.839844 L 102.703125 31.839844 C 102.617188 31.839844 102.542969 31.765625 102.542969 31.679688 L 102.542969 27.902344 C 102.542969 27.8125 102.617188 27.742188 102.703125 27.742188 Z M 111.976562 36.839844 L 111.976562 40.9375 L 108.808594 40.9375 C 108.628906 40.921875 108.453125 40.921875 108.273438 40.9375 C 108.023438 40.976562 107.78125 41.050781 107.554688 41.164062 C 107.285156 41.289062 107.054688 41.476562 106.875 41.710938 C 106.777344 41.824219 106.699219 41.953125 106.644531 42.09375 C 106.527344 42.351562 106.445312 42.625 106.398438 42.902344 C 106.3125 43.359375 106.273438 43.824219 106.285156 44.289062 C 106.285156 44.535156 106.285156 44.824219 106.332031 45.15625 C 106.367188 45.488281 106.441406 45.816406 106.542969 46.136719 C 106.636719 46.445312 106.796875 46.730469 107.011719 46.96875 C 107.238281 47.175781 107.496094 47.34375 107.777344 47.46875 C 108.085938 47.609375 108.421875 47.6875 108.761719 47.691406 L 112.015625 47.691406 L 112.015625 51.785156 L 107.261719 51.785156 C 106.8125 51.785156 106.34375 51.785156 105.847656 51.742188 C 105.328125 51.703125 104.816406 51.601562 104.316406 51.441406 C 103.789062 51.277344 103.292969 51.019531 102.855469 50.675781 C 102.382812 50.261719 101.992188 49.753906 101.710938 49.191406 C 101.425781 48.632812 101.214844 48.042969 101.082031 47.429688 C 100.953125 46.84375 100.867188 46.25 100.820312 45.652344 C 100.820312 45.085938 100.761719 44.574219 100.769531 44.121094 C 100.761719 43.414062 100.804688 42.707031 100.898438 42.007812 C 100.988281 41.316406 101.183594 40.636719 101.472656 40 C 101.792969 39.332031 102.25 38.738281 102.8125 38.257812 C 103.265625 37.855469 103.78125 37.53125 104.339844 37.296875 C 104.832031 37.105469 105.347656 36.976562 105.871094 36.914062 C 106.332031 36.859375 106.792969 36.832031 107.257812 36.839844 L 112.007812 36.839844 Z M 62.378906 51.808594 L 62.378906 47.757812 L 73.089844 47.757812 C 73.179688 47.757812 73.25 47.832031 73.25 47.917969 L 73.25 51.855469 L 62.425781 51.808594 Z M 62.378906 41.570312 L 62.378906 37.484375 L 67.320312 37.484375 C 67.59375 37.492188 67.863281 37.410156 68.085938 37.253906 C 68.25 37.117188 68.363281 36.929688 68.414062 36.722656 C 68.476562 36.515625 68.5 36.296875 68.492188 36.082031 C 68.492188 35.617188 68.417969 35.152344 68.269531 34.710938 C 68.132812 34.320312 67.9375 33.953125 67.6875 33.625 C 67.476562 33.328125 67.21875 33.070312 66.925781 32.855469 C 66.496094 32.519531 66.011719 32.261719 65.492188 32.089844 C 64.996094 31.941406 64.480469 31.839844 63.964844 31.792969 C 63.453125 31.746094 62.945312 31.726562 62.433594 31.730469 L 62.433594 27.648438 L 62.6875 27.648438 C 63.632812 27.648438 64.566406 27.648438 65.5 27.742188 C 66.417969 27.800781 67.328125 27.945312 68.21875 28.171875 C 69.023438 28.378906 69.796875 28.699219 70.511719 29.121094 C 70.574219 29.15625 70.605469 29.226562 70.589844 29.296875 C 70.246094 30.828125 70.34375 32.597656 69.25 33.890625 C 69.222656 33.914062 69.21875 33.953125 69.238281 33.980469 C 69.257812 34.007812 69.296875 34.011719 69.324219 33.992188 C 70.601562 33.414062 71.960938 33.03125 73.351562 32.855469 C 73.425781 32.847656 73.496094 32.890625 73.519531 32.964844 C 73.632812 33.308594 73.726562 33.664062 73.792969 34.019531 C 73.972656 35.007812 74.054688 36.007812 74.046875 37.007812 C 74.050781 37.429688 74.023438 37.851562 73.96875 38.269531 C 73.921875 38.703125 73.816406 39.125 73.65625 39.527344 C 73.472656 39.941406 73.210938 40.316406 72.890625 40.636719 C 72.558594 40.988281 72.144531 41.253906 71.683594 41.402344 C 71.234375 41.527344 70.769531 41.585938 70.304688 41.578125 L 62.378906 41.578125 Z M 82.15625 51.855469 C 82.246094 51.855469 82.316406 51.785156 82.316406 51.695312 L 82.316406 21.464844 C 82.316406 21.414062 82.296875 21.371094 82.261719 21.339844 C 82.226562 21.308594 82.179688 21.296875 82.132812 21.300781 C 80.714844 21.46875 79.332031 21.855469 78.03125 22.441406 C 77.964844 22.441406 77.910156 22.398438 77.957031 22.34375 C 79.484375 20.519531 78.683594 17.75 80.003906 16.15625 C 80.554688 15.523438 81.316406 15.117188 82.148438 15.015625 C 82.230469 15.007812 82.292969 14.9375 82.292969 14.855469 L 82.292969 13.539062 C 82.292969 13.449219 82.222656 13.375 82.132812 13.375 L 77.128906 13.375 C 77.039062 13.375 76.96875 13.449219 76.96875 13.539062 L 76.96875 51.695312 C 76.96875 51.785156 77.039062 51.855469 77.128906 51.855469 Z M 99.851562 51.855469 C 99.917969 51.863281 99.980469 51.824219 100.003906 51.761719 C 100.03125 51.703125 100.015625 51.632812 99.964844 51.585938 L 90.355469 41.441406 C 90.066406 41.113281 89.808594 40.757812 89.589844 40.378906 C 89.382812 40.023438 89.265625 39.625 89.246094 39.214844 C 89.246094 38.871094 89.324219 38.535156 89.476562 38.234375 C 89.613281 37.949219 89.792969 37.691406 90.011719 37.46875 L 98.808594 28.003906 C 98.851562 27.953125 98.863281 27.886719 98.835938 27.828125 C 98.808594 27.769531 98.75 27.734375 98.6875 27.734375 L 92.941406 27.734375 C 92.898438 27.734375 92.855469 27.753906 92.828125 27.789062 L 85.597656 35.746094 C 85.367188 36.003906 85.117188 36.289062 84.832031 36.625 C 84.5625 36.988281 84.339844 37.382812 84.175781 37.804688 C 83.984375 38.308594 83.886719 38.84375 83.890625 39.382812 C 83.890625 39.902344 83.980469 40.421875 84.160156 40.914062 C 84.320312 41.34375 84.535156 41.75 84.792969 42.128906 C 85.03125 42.445312 85.285156 42.746094 85.558594 43.027344 L 93.835938 51.800781 C 93.867188 51.832031 93.910156 51.847656 93.953125 51.847656 Z M 62.363281 27.648438 L 62.363281 31.746094 C 61.898438 31.746094 61.363281 31.746094 60.773438 31.792969 C 60.160156 31.847656 59.558594 31.980469 58.984375 32.191406 C 58.367188 32.441406 57.816406 32.835938 57.375 33.339844 C 57.046875 33.707031 56.785156 34.132812 56.613281 34.59375 C 56.464844 35.039062 56.371094 35.5 56.34375 35.964844 C 56.34375 36.394531 56.289062 36.839844 56.28125 37.304688 C 56.28125 37.351562 56.296875 37.394531 56.328125 37.425781 C 56.355469 37.457031 56.398438 37.476562 56.441406 37.476562 L 62.394531 37.476562 L 62.394531 41.5625 L 56.429688 41.5625 C 56.382812 41.5625 56.34375 41.582031 56.3125 41.613281 C 56.28125 41.644531 56.265625 41.6875 56.265625 41.730469 C 56.265625 42.039062 56.265625 42.367188 56.3125 42.726562 C 56.3125 43.148438 56.375 43.554688 56.421875 43.929688 C 56.472656 44.3125 56.527344 44.625 56.582031 44.878906 C 56.710938 45.441406 56.972656 45.96875 57.347656 46.410156 C 57.671875 46.785156 58.078125 47.082031 58.53125 47.277344 C 58.984375 47.472656 59.464844 47.601562 59.953125 47.660156 C 60.449219 47.714844 60.941406 47.742188 61.4375 47.734375 L 62.371094 47.734375 L 62.371094 51.785156 L 57.949219 51.785156 C 57.285156 51.734375 56.628906 51.605469 55.992188 51.402344 C 55.332031 51.195312 54.707031 50.886719 54.140625 50.492188 C 53.496094 50.039062 52.9375 49.472656 52.488281 48.824219 C 51.953125 48.039062 51.5625 47.164062 51.332031 46.242188 C 51.082031 45.253906 50.921875 44.242188 50.859375 43.226562 C 50.78125 42.175781 50.75 41.113281 50.757812 40.039062 C 50.765625 38.96875 50.757812 37.867188 50.835938 36.878906 C 50.886719 35.964844 51.011719 35.054688 51.203125 34.160156 C 51.378906 33.355469 51.667969 32.582031 52.058594 31.863281 C 52.460938 31.144531 52.976562 30.5 53.589844 29.957031 C 54.265625 29.390625 55.027344 28.9375 55.847656 28.613281 C 56.632812 28.300781 57.453125 28.070312 58.285156 27.933594 C 59.070312 27.800781 59.863281 27.71875 60.660156 27.6875 C 61.308594 27.6875 61.890625 27.6875 62.402344 27.6875 Z M 32.894531 51.855469 L 32.894531 46.917969 C 34.59375 46.871094 35.957031 46.824219 36.039062 46.808594 C 36.855469 46.648438 37.636719 46.335938 38.335938 45.882812 C 39 45.417969 39.558594 44.820312 39.972656 44.121094 C 40.292969 43.59375 40.550781 43.03125 40.738281 42.445312 C 41.015625 41.507812 41.207031 40.550781 41.3125 39.582031 C 41.484375 38.097656 41.566406 36.609375 41.554688 35.117188 C 41.566406 34.171875 41.523438 33.222656 41.425781 32.28125 C 41.328125 31.335938 41.117188 30.402344 40.796875 29.503906 C 40.472656 28.613281 39.976562 27.800781 39.328125 27.105469 C 38.734375 26.488281 38.019531 25.996094 37.234375 25.652344 C 36.464844 25.320312 35.652344 25.085938 34.824219 24.960938 C 34.1875 24.859375 33.542969 24.800781 32.894531 24.785156 L 32.894531 20.046875 L 35.191406 20.046875 C 36.527344 20.039062 37.855469 20.210938 39.144531 20.558594 C 40.226562 20.863281 41.257812 21.316406 42.207031 21.914062 C 42.441406 22.066406 42.679688 22.230469 42.902344 22.390625 C 42.957031 22.425781 42.976562 22.496094 42.957031 22.558594 C 42.542969 24.089844 42.710938 26.027344 41.5625 27.398438 C 41.535156 27.417969 41.53125 27.457031 41.550781 27.484375 C 41.574219 27.511719 41.613281 27.519531 41.640625 27.496094 C 43.039062 26.863281 44.539062 26.464844 46.070312 26.324219 C 46.136719 26.316406 46.199219 26.355469 46.222656 26.417969 L 46.300781 26.570312 C 46.734375 27.527344 47.054688 28.53125 47.253906 29.566406 C 47.460938 30.574219 47.589844 31.597656 47.644531 32.628906 C 47.699219 33.652344 47.722656 34.632812 47.714844 35.597656 C 47.714844 36.472656 47.714844 37.445312 47.636719 38.5 C 47.582031 39.601562 47.457031 40.699219 47.269531 41.785156 C 47.097656 42.90625 46.8125 44.007812 46.421875 45.070312 C 46.058594 46.109375 45.542969 47.085938 44.890625 47.972656 C 44.53125 48.457031 44.121094 48.898438 43.667969 49.289062 C 43.109375 49.78125 42.496094 50.207031 41.839844 50.554688 C 41.039062 50.976562 40.1875 51.296875 39.308594 51.511719 C 38.21875 51.761719 37.105469 51.886719 35.988281 51.878906 Z M 18.972656 16.984375 C 18.902344 17.007812 18.863281 17.082031 18.878906 17.152344 C 18.96875 17.757812 18.886719 18.378906 18.644531 18.945312 L 18.644531 16.90625 C 18.789062 16.808594 18.835938 16.617188 18.75 16.460938 L 18.644531 16.285156 L 18.644531 14.601562 C 18.894531 14.234375 19.070312 13.816406 19.148438 13.375 C 19.25 12.855469 19.292969 12.324219 19.277344 11.792969 C 19.277344 11.605469 19.128906 11.453125 18.941406 11.453125 C 18.816406 11.453125 18.703125 11.519531 18.644531 11.628906 L 18.644531 5.496094 C 18.820312 5.757812 18.984375 6.035156 19.125 6.316406 C 19.152344 6.371094 19.203125 6.402344 19.261719 6.402344 C 19.320312 6.402344 19.375 6.371094 19.402344 6.316406 L 20.050781 5.359375 C 20.082031 5.324219 20.125 5.300781 20.171875 5.300781 C 20.222656 5.300781 20.265625 5.324219 20.296875 5.359375 C 22.628906 7.71875 23.355469 15.007812 18.980469 17 Z M 32.894531 20.046875 L 32.894531 24.824219 L 26.308594 24.824219 C 26.078125 24.820312 25.847656 24.832031 25.621094 24.863281 C 25.363281 24.894531 25.113281 24.988281 24.902344 25.136719 C 24.691406 25.300781 24.535156 25.523438 24.449219 25.773438 C 24.332031 26.074219 24.269531 26.394531 24.273438 26.714844 L 24.273438 44.894531 C 24.25 45.199219 24.25 45.503906 24.273438 45.804688 C 24.316406 46.109375 24.445312 46.390625 24.648438 46.617188 C 24.835938 46.824219 25.085938 46.964844 25.359375 47.015625 C 25.632812 47.0625 25.90625 47.078125 26.179688 47.070312 C 26.292969 47.070312 30.003906 46.984375 32.871094 46.910156 L 32.871094 51.847656 L 23.125 51.847656 C 22.484375 51.855469 21.84375 51.792969 21.214844 51.664062 C 20.820312 51.589844 20.4375 51.464844 20.074219 51.289062 C 19.902344 51.210938 19.738281 51.109375 19.59375 50.992188 C 19.363281 50.808594 19.164062 50.59375 18.996094 50.355469 C 18.867188 50.171875 18.757812 49.976562 18.667969 49.773438 L 18.667969 22.496094 C 18.839844 22.085938 19.082031 21.703125 19.378906 21.371094 C 19.578125 21.160156 19.796875 20.964844 20.035156 20.796875 C 20.378906 20.558594 20.757812 20.375 21.160156 20.253906 C 21.683594 20.101562 22.222656 20.03125 22.765625 20.046875 Z M 18.644531 18.957031 C 18.285156 19.699219 17.632812 20.253906 16.847656 20.492188 L 16.847656 16.027344 C 17.035156 15.964844 17.21875 15.886719 17.398438 15.796875 C 17.433594 15.773438 17.476562 15.765625 17.515625 15.777344 C 17.554688 15.789062 17.589844 15.8125 17.609375 15.851562 C 17.792969 16.15625 17.976562 16.46875 18.160156 16.792969 C 18.203125 16.871094 18.277344 16.929688 18.363281 16.953125 C 18.449219 16.976562 18.542969 16.964844 18.621094 16.921875 L 18.621094 18.972656 Z M 16.832031 3.535156 L 16.832031 9.125 L 16.914062 9.125 C 17.003906 9.109375 17.09375 9.132812 17.167969 9.183594 C 17.238281 9.234375 17.289062 9.3125 17.304688 9.402344 C 17.402344 9.90625 17.417969 10.425781 17.351562 10.933594 C 17.28125 11.4375 17.132812 11.929688 16.90625 12.390625 C 16.886719 12.425781 16.859375 12.464844 16.832031 12.496094 L 16.832031 13.515625 C 17.484375 14.414062 18.085938 15.355469 18.628906 16.324219 L 18.628906 14.640625 C 18.574219 14.710938 18.496094 14.761719 18.40625 14.773438 C 18.316406 14.785156 18.226562 14.761719 18.152344 14.707031 C 18.082031 14.65625 18.035156 14.578125 18.023438 14.488281 C 18.011719 14.402344 18.039062 14.3125 18.09375 14.242188 C 18.296875 13.941406 18.433594 13.601562 18.5 13.246094 C 18.585938 12.769531 18.625 12.285156 18.613281 11.800781 C 18.613281 11.742188 18.625 11.6875 18.652344 11.636719 L 18.652344 5.496094 C 18.164062 4.742188 17.550781 4.078125 16.832031 3.535156 Z M 18.644531 22.496094 L 18.644531 49.773438 C 18.582031 49.636719 18.527344 49.480469 18.476562 49.320312 C 18.324219 48.824219 18.253906 48.308594 18.261719 47.789062 L 18.261719 25.109375 C 18.257812 24.699219 18.273438 24.289062 18.316406 23.882812 C 18.355469 23.449219 18.453125 23.019531 18.605469 22.613281 C 18.621094 22.578125 18.632812 22.546875 18.644531 22.511719 Z M 16.832031 15.3125 L 16.832031 14.6875 L 17.058594 15.039062 C 17.085938 15.074219 17.097656 15.121094 17.085938 15.164062 C 17.078125 15.210938 17.046875 15.246094 17.007812 15.269531 Z M 16.832031 20.492188 C 16.128906 20.71875 15.394531 20.828125 14.65625 20.8125 C 13.617188 20.820312 12.585938 20.660156 11.597656 20.335938 L 11.597656 12.21875 C 12.1875 11.984375 12.710938 11.609375 13.128906 11.132812 C 13.210938 11.035156 13.292969 10.929688 13.378906 10.8125 C 13.410156 10.777344 13.453125 10.753906 13.5 10.753906 C 13.542969 10.753906 13.589844 10.777344 13.617188 10.8125 C 14.828125 11.980469 15.90625 13.277344 16.832031 14.6875 L 16.832031 15.351562 C 16.542969 15.460938 16.238281 15.527344 15.925781 15.542969 C 15.195312 15.554688 14.464844 15.441406 13.769531 15.214844 C 13.589844 15.171875 13.410156 15.273438 13.355469 15.453125 C 13.332031 15.539062 13.34375 15.632812 13.386719 15.710938 C 13.433594 15.789062 13.507812 15.84375 13.59375 15.867188 C 14.367188 16.109375 15.175781 16.230469 15.988281 16.21875 C 16.28125 16.199219 16.566406 16.148438 16.847656 16.0625 L 16.847656 20.527344 Z M 11.597656 1.429688 L 11.597656 8.324219 C 11.925781 8.535156 12.246094 8.765625 12.5625 9.003906 L 13.058594 9.394531 C 13.097656 9.429688 13.15625 9.445312 13.207031 9.429688 C 13.257812 9.414062 13.296875 9.371094 13.3125 9.316406 C 13.371094 9.105469 13.414062 8.886719 13.441406 8.667969 C 13.507812 8.023438 13.457031 7.371094 13.296875 6.746094 C 13.253906 6.625 13.28125 6.488281 13.371094 6.398438 C 13.460938 6.304688 13.59375 6.273438 13.71875 6.3125 C 13.839844 6.351562 13.929688 6.457031 13.945312 6.585938 C 14.132812 7.289062 14.1875 8.019531 14.105469 8.742188 C 14.0625 9.144531 13.96875 9.539062 13.824219 9.914062 C 13.796875 9.976562 13.8125 10.046875 13.863281 10.089844 C 14.960938 11.121094 15.953125 12.253906 16.832031 13.476562 L 16.832031 12.457031 C 16.726562 12.542969 16.578125 12.5625 16.457031 12.503906 C 16.375 12.46875 16.3125 12.398438 16.28125 12.316406 C 16.253906 12.230469 16.261719 12.136719 16.300781 12.058594 C 16.492188 11.664062 16.617188 11.246094 16.675781 10.8125 C 16.746094 10.371094 16.746094 9.925781 16.675781 9.488281 C 16.648438 9.339844 16.726562 9.191406 16.859375 9.125 L 16.859375 3.535156 C 15.484375 2.496094 14 1.851562 12.890625 0.207031 C 12.859375 0.175781 12.820312 0.15625 12.777344 0.15625 C 12.734375 0.15625 12.691406 0.175781 12.660156 0.207031 C 12.210938 0.535156 11.847656 0.96875 11.597656 1.46875 Z M 11.597656 11.476562 C 11.972656 11.285156 12.308594 11.027344 12.59375 10.710938 C 12.691406 10.59375 12.785156 10.46875 12.867188 10.335938 C 12.894531 10.308594 12.910156 10.273438 12.910156 10.234375 C 12.910156 10.195312 12.894531 10.15625 12.867188 10.128906 C 12.644531 9.9375 12.417969 9.753906 12.1875 9.578125 L 11.628906 9.171875 Z M 11.597656 20.335938 C 9.242188 19.570312 7.988281 18 6.113281 17.617188 C 6.066406 17.609375 6.023438 17.578125 6.003906 17.535156 C 5.980469 17.492188 5.976562 17.441406 5.996094 17.398438 C 6.214844 16.898438 6.558594 16.464844 7 16.148438 C 7.050781 16.113281 7.074219 16.054688 7.066406 15.996094 C 7.058594 15.9375 7.019531 15.886719 6.960938 15.867188 C 5.265625 15.332031 3.765625 14.316406 2.640625 12.941406 C 2.609375 12.910156 2.589844 12.867188 2.589844 12.824219 C 2.589844 12.78125 2.609375 12.742188 2.640625 12.710938 L 4.367188 11.476562 C 4.410156 11.449219 4.433594 11.402344 4.433594 11.351562 C 4.433594 11.300781 4.410156 11.253906 4.367188 11.226562 C 1.085938 8.558594 1.4375 5.886719 0 2.960938 C -0.0234375 2.914062 -0.0195312 2.859375 0.00390625 2.8125 C 0.03125 2.769531 0.078125 2.738281 0.128906 2.734375 C 4.277344 2.34375 7.078125 0.632812 11.039062 2.886719 C 11.085938 2.917969 11.148438 2.917969 11.199219 2.890625 C 11.25 2.859375 11.28125 2.804688 11.277344 2.746094 C 11.285156 2.292969 11.390625 1.84375 11.582031 1.429688 L 11.582031 8.324219 C 9.539062 6.972656 7.207031 6.128906 4.773438 5.863281 C 4.585938 5.84375 4.421875 5.980469 4.402344 6.167969 C 4.382812 6.351562 4.519531 6.519531 4.703125 6.539062 C 7.183594 6.8125 9.554688 7.714844 11.589844 9.15625 L 11.589844 11.453125 C 11.332031 11.582031 11.0625 11.683594 10.785156 11.753906 C 10.242188 11.886719 9.675781 11.917969 9.117188 11.84375 C 8.933594 11.824219 8.765625 11.957031 8.746094 12.144531 C 8.722656 12.328125 8.855469 12.496094 9.042969 12.519531 C 9.679688 12.597656 10.324219 12.5625 10.949219 12.410156 C 11.164062 12.351562 11.378906 12.28125 11.589844 12.199219 Z M 11.597656 20.335938 "/>
</g>
</svg>
