<svg xmlns="http://www.w3.org/2000/svg" viewBox="0 0 923.39 685"><defs><style>.cls-1{fill:#c9b289;}.cls-2{fill:#afafaf;}.cls-3,.cls-4,.cls-8{fill:none;}.cls-3,.cls-6{stroke:#4c4f4c;}.cls-3,.cls-4,.cls-6,.cls-8{stroke-miterlimit:10;}.cls-3,.cls-4,.cls-6{stroke-width:5px;}.cls-4{stroke:#000;}.cls-5{fill:#f4eea6;}.cls-10,.cls-6,.cls-7{fill:#05a541;}.cls-7{fill-rule:evenodd;}.cls-8{stroke:#b2b2b2;stroke-width:2px;}.cls-9{fill:#b2b2b2;}.cls-11{fill:#404241;}.cls-12{fill:#7ce87e;}</style></defs><title>монтаж схема</title><g id="Слой_2" data-name="Слой 2"><g id="Слой_1-2" data-name="Слой 1"><path class="cls-1" d="M116.39,111V642h-32V111h32m5-5h-42V647h42V106Z"/><rect class="cls-1" x="80.39" y="128" width="37" height="6"/><rect class="cls-1" x="80.39" y="156.88" width="37" height="6"/><rect class="cls-1" x="80.39" y="185.76" width="37" height="6"/><rect class="cls-1" x="80.39" y="214.65" width="37" height="6"/><rect class="cls-1" x="80.39" y="243.53" width="37" height="6"/><rect class="cls-1" x="80.39" y="272.41" width="37" height="6"/><rect class="cls-1" x="80.39" y="301.29" width="37" height="6"/><rect class="cls-1" x="80.39" y="330.18" width="37" height="6"/><rect class="cls-1" x="80.39" y="359.06" width="37" height="6"/><rect class="cls-1" x="80.39" y="387.94" width="37" height="6"/><rect class="cls-1" x="80.39" y="416.82" width="37" height="6"/><rect class="cls-1" x="80.39" y="445.71" width="37" height="6"/><rect class="cls-1" x="80.39" y="474.59" width="37" height="6"/><rect class="cls-1" x="80.39" y="503.47" width="37" height="6"/><rect class="cls-1" x="80.39" y="532.35" width="37" height="6"/><rect class="cls-1" x="80.39" y="561.24" width="37" height="6"/><rect class="cls-1" x="80.39" y="590.12" width="37" height="6"/><rect class="cls-1" x="80.39" y="619" width="37" height="6"/><path class="cls-1" d="M841.39,111V642h-32V111h32m5-5h-42V647h42V106Z"/><rect class="cls-1" x="805.39" y="128" width="37" height="6"/><rect class="cls-1" x="805.39" y="156.88" width="37" height="6"/><rect class="cls-1" x="805.39" y="185.76" width="37" height="6"/><rect class="cls-1" x="805.39" y="214.65" width="37" height="6"/><rect class="cls-1" x="805.39" y="243.53" width="37" height="6"/><rect class="cls-1" x="805.39" y="272.41" width="37" height="6"/><rect class="cls-1" x="805.39" y="301.29" width="37" height="6"/><rect class="cls-1" x="805.39" y="330.18" width="37" height="6"/><rect class="cls-1" x="805.39" y="359.06" width="37" height="6"/><rect class="cls-1" x="805.39" y="387.94" width="37" height="6"/><rect class="cls-1" x="805.39" y="416.82" width="37" height="6"/><rect class="cls-1" x="805.39" y="445.71" width="37" height="6"/><rect class="cls-1" x="805.39" y="474.59" width="37" height="6"/><rect class="cls-1" x="805.39" y="503.47" width="37" height="6"/><rect class="cls-1" x="805.39" y="532.35" width="37" height="6"/><rect class="cls-1" x="805.39" y="561.24" width="37" height="6"/><rect class="cls-1" x="805.39" y="590.12" width="37" height="6"/><rect class="cls-1" x="805.39" y="619" width="37" height="6"/><rect class="cls-2" x="37.39" y="106" width="26" height="6"/><rect class="cls-2" x="0.39" y="106" width="26" height="6"/><rect class="cls-2" x="37.39" y="125.11" width="26" height="6"/><rect class="cls-2" x="0.39" y="125.11" width="26" height="6"/><rect class="cls-2" x="37.39" y="144.21" width="26" height="6"/><rect class="cls-2" x="0.39" y="144.21" width="26" height="6"/><rect class="cls-2" x="37.39" y="163.32" width="26" height="6"/><rect class="cls-2" x="0.39" y="163.32" width="26" height="6"/><rect class="cls-2" x="37.39" y="182.43" width="26" height="6"/><rect class="cls-2" x="0.39" y="182.43" width="26" height="6"/><rect class="cls-2" x="37.39" y="201.54" width="26" height="6"/><rect class="cls-2" x="0.39" y="201.54" width="26" height="6"/><rect class="cls-2" x="37.39" y="220.64" width="26" height="6"/><rect class="cls-2" x="0.39" y="220.64" width="26" height="6"/><rect class="cls-2" x="37.39" y="239.75" width="26" height="6"/><rect class="cls-2" x="0.39" y="239.75" width="26" height="6"/><rect class="cls-2" x="37.39" y="258.86" width="26" height="6"/><rect class="cls-2" x="0.39" y="258.86" width="26" height="6"/><rect class="cls-2" x="37.39" y="277.96" width="26" height="6"/><rect class="cls-2" x="0.39" y="277.96" width="26" height="6"/><rect class="cls-2" x="37.39" y="297.07" width="26" height="6"/><rect class="cls-2" x="0.39" y="297.07" width="26" height="6"/><rect class="cls-2" x="37.39" y="316.18" width="26" height="6"/><rect class="cls-2" x="0.39" y="316.18" width="26" height="6"/><rect class="cls-2" x="37.39" y="335.29" width="26" height="6"/><rect class="cls-2" x="0.39" y="335.29" width="26" height="6"/><rect class="cls-2" x="37.39" y="354.39" width="26" height="6"/><rect class="cls-2" x="0.39" y="354.39" width="26" height="6"/><rect class="cls-2" x="37.39" y="373.5" width="26" height="6"/><rect class="cls-2" x="0.39" y="373.5" width="26" height="6"/><rect class="cls-2" x="37.39" y="392.61" width="26" height="6"/><rect class="cls-2" x="0.39" y="392.61" width="26" height="6"/><rect class="cls-2" x="37.39" y="411.71" width="26" height="6"/><rect class="cls-2" x="0.39" y="411.71" width="26" height="6"/><rect class="cls-2" x="37.39" y="430.82" width="26" height="6"/><rect class="cls-2" x="0.39" y="430.82" width="26" height="6"/><rect class="cls-2" x="37.39" y="449.93" width="26" height="6"/><rect class="cls-2" x="0.39" y="449.93" width="26" height="6"/><rect class="cls-2" x="37.39" y="469.04" width="26" height="6"/><rect class="cls-2" x="0.39" y="469.04" width="26" height="6"/><rect class="cls-2" x="37.39" y="488.14" width="26" height="6"/><rect class="cls-2" x="0.39" y="488.14" width="26" height="6"/><rect class="cls-2" x="37.39" y="507.25" width="26" height="6"/><rect class="cls-2" x="0.39" y="507.25" width="26" height="6"/><rect class="cls-2" x="37.39" y="526.36" width="26" height="6"/><rect class="cls-2" x="0.39" y="526.36" width="26" height="6"/><rect class="cls-2" x="37.39" y="545.46" width="26" height="6"/><rect class="cls-2" x="0.39" y="545.46" width="26" height="6"/><rect class="cls-2" x="37.39" y="564.57" width="26" height="6"/><rect class="cls-2" x="0.39" y="564.57" width="26" height="6"/><rect class="cls-2" x="37.39" y="583.68" width="26" height="6"/><rect class="cls-2" x="0.39" y="583.68" width="26" height="6"/><rect class="cls-2" x="37.39" y="602.79" width="26" height="6"/><rect class="cls-2" x="0.39" y="602.79" width="26" height="6"/><rect class="cls-2" x="37.39" y="621.89" width="26" height="6"/><rect class="cls-2" x="0.39" y="621.89" width="26" height="6"/><rect class="cls-2" x="37.39" y="641" width="26" height="6"/><rect class="cls-2" x="0.39" y="641" width="26" height="6"/><rect class="cls-2" x="0.39" y="659.89" width="26" height="6"/><rect class="cls-2" x="37.39" y="659.89" width="26" height="6"/><rect class="cls-2" x="37.39" y="679" width="26" height="6"/><rect class="cls-2" x="0.39" y="679" width="26" height="6"/><rect class="cls-2" x="118.39" y="659.89" width="26" height="6"/><rect class="cls-2" x="118.39" y="679" width="26" height="6"/><rect class="cls-2" x="79.39" y="659.89" width="26" height="6"/><rect class="cls-2" x="79.39" y="679" width="26" height="6"/><rect class="cls-2" x="196.39" y="659.89" width="26" height="6"/><rect class="cls-2" x="196.39" y="679" width="26" height="6"/><rect class="cls-2" x="157.39" y="659.89" width="26" height="6"/><rect class="cls-2" x="157.39" y="679" width="26" height="6"/><rect class="cls-2" x="274.39" y="659.89" width="26" height="6"/><rect class="cls-2" x="274.39" y="679" width="26" height="6"/><rect class="cls-2" x="235.39" y="659.89" width="26" height="6"/><rect class="cls-2" x="235.39" y="679" width="26" height="6"/><rect class="cls-2" x="352.39" y="659.89" width="26" height="6"/><rect class="cls-2" x="352.39" y="679" width="26" height="6"/><rect class="cls-2" x="313.39" y="659.89" width="26" height="6"/><rect class="cls-2" x="313.39" y="679" width="26" height="6"/><rect class="cls-2" x="430.39" y="659.89" width="26" height="6"/><rect class="cls-2" x="430.39" y="679" width="26" height="6"/><rect class="cls-2" x="391.39" y="659.89" width="26" height="6"/><rect class="cls-2" x="391.39" y="679" width="26" height="6"/><rect class="cls-2" x="508.39" y="659.89" width="26" height="6"/><rect class="cls-2" x="508.39" y="679" width="26" height="6"/><rect class="cls-2" x="469.39" y="659.89" width="26" height="6"/><rect class="cls-2" x="469.39" y="679" width="26" height="6"/><rect class="cls-2" x="586.39" y="659.89" width="26" height="6"/><rect class="cls-2" x="586.39" y="679" width="26" height="6"/><rect class="cls-2" x="547.39" y="659.89" width="26" height="6"/><rect class="cls-2" x="547.39" y="679" width="26" height="6"/><rect class="cls-2" x="664.39" y="659.89" width="26" height="6"/><rect class="cls-2" x="664.39" y="679" width="26" height="6"/><rect class="cls-2" x="625.39" y="659.89" width="26" height="6"/><rect class="cls-2" x="625.39" y="679" width="26" height="6"/><rect class="cls-2" x="742.39" y="659.89" width="26" height="6"/><rect class="cls-2" x="742.39" y="679" width="26" height="6"/><rect class="cls-2" x="703.39" y="659.89" width="26" height="6"/><rect class="cls-2" x="703.39" y="679" width="26" height="6"/><rect class="cls-2" x="820.39" y="659.89" width="26" height="6"/><rect class="cls-2" x="820.39" y="679" width="26" height="6"/><rect class="cls-2" x="781.39" y="659.89" width="26" height="6"/><rect class="cls-2" x="781.39" y="679" width="26" height="6"/><rect class="cls-2" x="897.39" y="106" width="26" height="6"/><rect class="cls-2" x="860.39" y="106" width="26" height="6"/><rect class="cls-2" x="897.39" y="125.11" width="26" height="6"/><rect class="cls-2" x="860.39" y="125.11" width="26" height="6"/><rect class="cls-2" x="897.39" y="144.21" width="26" height="6"/><rect class="cls-2" x="860.39" y="144.21" width="26" height="6"/><rect class="cls-2" x="897.39" y="163.32" width="26" height="6"/><rect class="cls-2" x="860.39" y="163.32" width="26" height="6"/><rect class="cls-2" x="897.39" y="182.43" width="26" height="6"/><rect class="cls-2" x="860.39" y="182.43" width="26" height="6"/><rect class="cls-2" x="897.39" y="201.54" width="26" height="6"/><rect class="cls-2" x="860.39" y="201.54" width="26" height="6"/><rect class="cls-2" x="897.39" y="220.64" width="26" height="6"/><rect class="cls-2" x="860.39" y="220.64" width="26" height="6"/><rect class="cls-2" x="897.39" y="239.75" width="26" height="6"/><rect class="cls-2" x="860.39" y="239.75" width="26" height="6"/><rect class="cls-2" x="897.39" y="258.86" width="26" height="6"/><rect class="cls-2" x="860.39" y="258.86" width="26" height="6"/><rect class="cls-2" x="897.39" y="277.96" width="26" height="6"/><rect class="cls-2" x="860.39" y="277.96" width="26" height="6"/><rect class="cls-2" x="897.39" y="297.07" width="26" height="6"/><rect class="cls-2" x="860.39" y="297.07" width="26" height="6"/><rect class="cls-2" x="897.39" y="316.18" width="26" height="6"/><rect class="cls-2" x="860.39" y="316.18" width="26" height="6"/><rect class="cls-2" x="897.39" y="335.29" width="26" height="6"/><rect class="cls-2" x="860.39" y="335.29" width="26" height="6"/><rect class="cls-2" x="897.39" y="354.39" width="26" height="6"/><rect class="cls-2" x="860.39" y="354.39" width="26" height="6"/><rect class="cls-2" x="897.39" y="373.5" width="26" height="6"/><rect class="cls-2" x="860.39" y="373.5" width="26" height="6"/><rect class="cls-2" x="897.39" y="392.61" width="26" height="6"/><rect class="cls-2" x="860.39" y="392.61" width="26" height="6"/><rect class="cls-2" x="897.39" y="411.71" width="26" height="6"/><rect class="cls-2" x="860.39" y="411.71" width="26" height="6"/><rect class="cls-2" x="897.39" y="430.82" width="26" height="6"/><rect class="cls-2" x="860.39" y="430.82" width="26" height="6"/><rect class="cls-2" x="897.39" y="449.93" width="26" height="6"/><rect class="cls-2" x="860.39" y="449.93" width="26" height="6"/><rect class="cls-2" x="897.39" y="469.04" width="26" height="6"/><rect class="cls-2" x="860.39" y="469.04" width="26" height="6"/><rect class="cls-2" x="897.39" y="488.14" width="26" height="6"/><rect class="cls-2" x="860.39" y="488.14" width="26" height="6"/><rect class="cls-2" x="897.39" y="507.25" width="26" height="6"/><rect class="cls-2" x="860.39" y="507.25" width="26" height="6"/><rect class="cls-2" x="897.39" y="526.36" width="26" height="6"/><rect class="cls-2" x="860.39" y="526.36" width="26" height="6"/><rect class="cls-2" x="897.39" y="545.46" width="26" height="6"/><rect class="cls-2" x="860.39" y="545.46" width="26" height="6"/><rect class="cls-2" x="897.39" y="564.57" width="26" height="6"/><rect class="cls-2" x="860.39" y="564.57" width="26" height="6"/><rect class="cls-2" x="897.39" y="583.68" width="26" height="6"/><rect class="cls-2" x="860.39" y="583.68" width="26" height="6"/><rect class="cls-2" x="897.39" y="602.79" width="26" height="6"/><rect class="cls-2" x="860.39" y="602.79" width="26" height="6"/><rect class="cls-2" x="897.39" y="621.89" width="26" height="6"/><rect class="cls-2" x="860.39" y="621.89" width="26" height="6"/><rect class="cls-2" x="897.39" y="641" width="26" height="6"/><rect class="cls-2" x="860.39" y="641" width="26" height="6"/><rect class="cls-2" x="860.39" y="659.89" width="26" height="6"/><rect class="cls-2" x="897.39" y="659.89" width="26" height="6"/><rect class="cls-2" x="897.39" y="679" width="26" height="6"/><rect class="cls-2" x="860.39" y="679" width="26" height="6"/><rect class="cls-3" x="311.39" y="123.5" width="303" height="480.5"/><polygon class="cls-3" points="341.89 124 341.89 366.4 359.89 405.5 359.89 124 341.89 124"/><polygon class="cls-3" points="582.89 124 582.89 366.4 564.89 405.5 564.89 124 582.89 124"/><polygon class="cls-3" points="564.89 603.5 564.89 545.5 582.89 603.5 564.89 603.5"/><polygon class="cls-4" points="359.89 603.5 359.89 545.5 341.89 603.5 359.89 603.5"/><rect class="cls-3" x="257.89" y="253.5" width="53" height="31"/><rect class="cls-3" x="614.89" y="189.5" width="53" height="31"/><circle class="cls-5" cx="138.89" cy="109.5" r="3.5"/><circle class="cls-5" cx="156.3" cy="109.5" r="3.5"/><circle class="cls-5" cx="173.71" cy="109.5" r="3.5"/><circle class="cls-5" cx="191.13" cy="109.5" r="3.5"/><circle class="cls-5" cx="208.54" cy="109.5" r="3.5"/><circle class="cls-5" cx="243.36" cy="109.5" r="3.5"/><circle class="cls-5" cx="260.77" cy="109.5" r="3.5"/><circle class="cls-5" cx="278.19" cy="109.5" r="3.5"/><circle class="cls-5" cx="295.6" cy="109.5" r="3.5"/><circle class="cls-5" cx="138.89" cy="130.86" r="3.5"/><circle class="cls-5" cx="156.3" cy="130.86" r="3.5"/><circle class="cls-5" cx="173.71" cy="130.86" r="3.5"/><circle class="cls-5" cx="191.13" cy="130.86" r="3.5"/><circle class="cls-5" cx="208.54" cy="130.86" r="3.5"/><circle class="cls-5" cx="243.36" cy="130.86" r="3.5"/><circle class="cls-5" cx="260.77" cy="130.86" r="3.5"/><circle class="cls-5" cx="278.19" cy="130.86" r="3.5"/><circle class="cls-5" cx="295.6" cy="130.86" r="3.5"/><circle class="cls-5" cx="138.89" cy="152.22" r="3.5"/><circle class="cls-5" cx="156.3" cy="152.22" r="3.5"/><circle class="cls-5" cx="173.71" cy="152.22" r="3.5"/><circle class="cls-5" cx="191.13" cy="152.22" r="3.5"/><circle class="cls-5" cx="208.54" cy="152.22" r="3.5"/><circle class="cls-5" cx="278.19" cy="152.22" r="3.5"/><circle class="cls-5" cx="295.6" cy="152.22" r="3.5"/><circle class="cls-5" cx="138.89" cy="173.58" r="3.5"/><circle class="cls-5" cx="156.3" cy="173.58" r="3.5"/><circle class="cls-5" cx="173.71" cy="173.58" r="3.5"/><circle class="cls-5" cx="191.13" cy="173.58" r="3.5"/><circle class="cls-5" cx="208.54" cy="173.58" r="3.5"/><circle class="cls-5" cx="278.19" cy="173.58" r="3.5"/><circle class="cls-5" cx="295.6" cy="173.58" r="3.5"/><circle class="cls-5" cx="138.89" cy="194.94" r="3.5"/><circle class="cls-5" cx="156.3" cy="194.94" r="3.5"/><circle class="cls-5" cx="173.71" cy="194.94" r="3.5"/><circle class="cls-5" cx="191.13" cy="194.94" r="3.5"/><circle class="cls-5" cx="208.54" cy="194.94" r="3.5"/><circle class="cls-5" cx="243.36" cy="194.94" r="3.5"/><circle class="cls-5" cx="260.77" cy="194.94" r="3.5"/><circle class="cls-5" cx="278.19" cy="194.94" r="3.5"/><circle class="cls-5" cx="295.6" cy="194.94" r="3.5"/><circle class="cls-5" cx="138.89" cy="216.3" r="3.5"/><circle class="cls-5" cx="156.3" cy="216.3" r="3.5"/><circle class="cls-5" cx="173.71" cy="216.3" r="3.5"/><circle class="cls-5" cx="191.13" cy="216.3" r="3.5"/><circle class="cls-5" cx="208.54" cy="216.3" r="3.5"/><circle class="cls-5" cx="243.36" cy="216.3" r="3.5"/><circle class="cls-5" cx="260.77" cy="216.3" r="3.5"/><circle class="cls-5" cx="278.19" cy="216.3" r="3.5"/><circle class="cls-5" cx="295.6" cy="216.3" r="3.5"/><circle class="cls-5" cx="138.89" cy="237.66" r="3.5"/><circle class="cls-5" cx="156.3" cy="237.66" r="3.5"/><circle class="cls-5" cx="173.71" cy="237.66" r="3.5"/><circle class="cls-5" cx="191.13" cy="237.66" r="3.5"/><circle class="cls-5" cx="208.54" cy="237.66" r="3.5"/><circle class="cls-5" cx="243.36" cy="237.66" r="3.5"/><circle class="cls-5" cx="260.77" cy="237.66" r="3.5"/><circle class="cls-5" cx="278.19" cy="237.66" r="3.5"/><circle class="cls-5" cx="295.6" cy="237.66" r="3.5"/><circle class="cls-5" cx="138.89" cy="259.02" r="3.5"/><circle class="cls-5" cx="156.3" cy="259.02" r="3.5"/><circle class="cls-5" cx="173.71" cy="259.02" r="3.5"/><circle class="cls-5" cx="191.13" cy="259.02" r="3.5"/><circle class="cls-5" cx="208.54" cy="259.02" r="3.5"/><circle class="cls-5" cx="243.36" cy="259.02" r="3.5"/><circle class="cls-5" cx="138.89" cy="280.38" r="3.5"/><circle class="cls-5" cx="156.3" cy="280.38" r="3.5"/><circle class="cls-5" cx="173.71" cy="280.38" r="3.5"/><circle class="cls-5" cx="191.13" cy="280.38" r="3.5"/><circle class="cls-5" cx="208.54" cy="280.38" r="3.5"/><circle class="cls-5" cx="243.36" cy="280.38" r="3.5"/><circle class="cls-5" cx="138.89" cy="301.74" r="3.5"/><circle class="cls-5" cx="156.3" cy="301.74" r="3.5"/><circle class="cls-5" cx="173.71" cy="301.74" r="3.5"/><circle class="cls-5" cx="191.13" cy="301.74" r="3.5"/><circle class="cls-5" cx="208.54" cy="301.74" r="3.5"/><circle class="cls-5" cx="225.95" cy="301.74" r="3.5"/><circle class="cls-5" cx="243.36" cy="301.74" r="3.5"/><circle class="cls-5" cx="260.77" cy="301.74" r="3.5"/><circle class="cls-5" cx="278.19" cy="301.74" r="3.5"/><circle class="cls-5" cx="295.6" cy="301.74" r="3.5"/><circle class="cls-5" cx="138.89" cy="323.1" r="3.5"/><circle class="cls-5" cx="156.3" cy="323.1" r="3.5"/><circle class="cls-5" cx="173.71" cy="323.1" r="3.5"/><circle class="cls-5" cx="191.13" cy="323.1" r="3.5"/><circle class="cls-5" cx="208.54" cy="323.1" r="3.5"/><circle class="cls-5" cx="225.95" cy="323.1" r="3.5"/><circle class="cls-5" cx="243.36" cy="323.1" r="3.5"/><circle class="cls-5" cx="260.77" cy="323.1" r="3.5"/><circle class="cls-5" cx="278.19" cy="323.1" r="3.5"/><circle class="cls-5" cx="295.6" cy="323.1" r="3.5"/><circle class="cls-5" cx="138.89" cy="344.46" r="3.5"/><circle class="cls-5" cx="156.3" cy="344.46" r="3.5"/><circle class="cls-5" cx="173.71" cy="344.46" r="3.5"/><circle class="cls-5" cx="191.13" cy="344.46" r="3.5"/><circle class="cls-5" cx="208.54" cy="344.46" r="3.5"/><circle class="cls-5" cx="225.95" cy="344.46" r="3.5"/><circle class="cls-5" cx="243.36" cy="344.46" r="3.5"/><circle class="cls-5" cx="260.77" cy="344.46" r="3.5"/><circle class="cls-5" cx="278.19" cy="344.46" r="3.5"/><circle class="cls-5" cx="295.6" cy="344.46" r="3.5"/><circle class="cls-5" cx="138.89" cy="365.82" r="3.5"/><circle class="cls-5" cx="156.3" cy="365.82" r="3.5"/><circle class="cls-5" cx="173.71" cy="365.82" r="3.5"/><circle class="cls-5" cx="191.13" cy="365.82" r="3.5"/><circle class="cls-5" cx="208.54" cy="365.82" r="3.5"/><circle class="cls-5" cx="225.95" cy="365.82" r="3.5"/><circle class="cls-5" cx="243.36" cy="365.82" r="3.5"/><circle class="cls-5" cx="260.77" cy="365.82" r="3.5"/><circle class="cls-5" cx="278.19" cy="365.82" r="3.5"/><circle class="cls-5" cx="295.6" cy="365.82" r="3.5"/><circle class="cls-5" cx="138.89" cy="387.18" r="3.5"/><circle class="cls-5" cx="156.3" cy="387.18" r="3.5"/><circle class="cls-5" cx="173.71" cy="387.18" r="3.5"/><circle class="cls-5" cx="191.13" cy="387.18" r="3.5"/><circle class="cls-5" cx="208.54" cy="387.18" r="3.5"/><circle class="cls-5" cx="225.95" cy="387.18" r="3.5"/><circle class="cls-5" cx="243.36" cy="387.18" r="3.5"/><circle class="cls-5" cx="260.77" cy="387.18" r="3.5"/><circle class="cls-5" cx="278.19" cy="387.18" r="3.5"/><circle class="cls-5" cx="295.6" cy="387.18" r="3.5"/><circle class="cls-5" cx="138.89" cy="408.54" r="3.5"/><circle class="cls-5" cx="156.3" cy="408.54" r="3.5"/><circle class="cls-5" cx="173.71" cy="408.54" r="3.5"/><circle class="cls-5" cx="191.13" cy="408.54" r="3.5"/><circle class="cls-5" cx="208.54" cy="408.54" r="3.5"/><circle class="cls-5" cx="225.95" cy="408.54" r="3.5"/><circle class="cls-5" cx="243.36" cy="408.54" r="3.5"/><circle class="cls-5" cx="260.77" cy="408.54" r="3.5"/><circle class="cls-5" cx="278.19" cy="408.54" r="3.5"/><circle class="cls-5" cx="295.6" cy="408.54" r="3.5"/><circle class="cls-5" cx="138.89" cy="429.9" r="3.5"/><circle class="cls-5" cx="156.3" cy="429.9" r="3.5"/><circle class="cls-5" cx="173.71" cy="429.9" r="3.5"/><circle class="cls-5" cx="191.13" cy="429.9" r="3.5"/><circle class="cls-5" cx="208.54" cy="429.9" r="3.5"/><circle class="cls-5" cx="225.95" cy="429.9" r="3.5"/><circle class="cls-5" cx="243.36" cy="429.9" r="3.5"/><circle class="cls-5" cx="260.77" cy="429.9" r="3.5"/><circle class="cls-5" cx="278.19" cy="429.9" r="3.5"/><circle class="cls-5" cx="295.6" cy="429.9" r="3.5"/><circle class="cls-5" cx="138.89" cy="451.26" r="3.5"/><circle class="cls-5" cx="156.3" cy="451.26" r="3.5"/><circle class="cls-5" cx="173.71" cy="451.26" r="3.5"/><circle class="cls-5" cx="191.13" cy="451.26" r="3.5"/><circle class="cls-5" cx="208.54" cy="451.26" r="3.5"/><circle class="cls-5" cx="225.95" cy="451.26" r="3.5"/><circle class="cls-5" cx="243.36" cy="451.26" r="3.5"/><circle class="cls-5" cx="260.77" cy="451.26" r="3.5"/><circle class="cls-5" cx="278.19" cy="451.26" r="3.5"/><circle class="cls-5" cx="295.6" cy="451.26" r="3.5"/><circle class="cls-5" cx="138.89" cy="472.62" r="3.5"/><circle class="cls-5" cx="156.3" cy="472.62" r="3.5"/><circle class="cls-5" cx="173.71" cy="472.62" r="3.5"/><circle class="cls-5" cx="191.13" cy="472.62" r="3.5"/><circle class="cls-5" cx="208.54" cy="472.62" r="3.5"/><circle class="cls-5" cx="225.95" cy="472.62" r="3.5"/><circle class="cls-5" cx="243.36" cy="472.62" r="3.5"/><circle class="cls-5" cx="260.77" cy="472.62" r="3.5"/><circle class="cls-5" cx="278.19" cy="472.62" r="3.5"/><circle class="cls-5" cx="295.6" cy="472.62" r="3.5"/><circle class="cls-5" cx="138.89" cy="493.98" r="3.5"/><circle class="cls-5" cx="156.3" cy="493.98" r="3.5"/><circle class="cls-5" cx="173.71" cy="493.98" r="3.5"/><circle class="cls-5" cx="191.13" cy="493.98" r="3.5"/><circle class="cls-5" cx="208.54" cy="493.98" r="3.5"/><circle class="cls-5" cx="225.95" cy="493.98" r="3.5"/><circle class="cls-5" cx="243.36" cy="493.98" r="3.5"/><circle class="cls-5" cx="260.77" cy="493.98" r="3.5"/><circle class="cls-5" cx="278.19" cy="493.98" r="3.5"/><circle class="cls-5" cx="295.6" cy="493.98" r="3.5"/><circle class="cls-5" cx="138.89" cy="515.34" r="3.5"/><circle class="cls-5" cx="156.3" cy="515.34" r="3.5"/><circle class="cls-5" cx="173.71" cy="515.34" r="3.5"/><circle class="cls-5" cx="191.13" cy="515.34" r="3.5"/><circle class="cls-5" cx="208.54" cy="515.34" r="3.5"/><circle class="cls-5" cx="225.95" cy="515.34" r="3.5"/><circle class="cls-5" cx="243.36" cy="515.34" r="3.5"/><circle class="cls-5" cx="260.77" cy="515.34" r="3.5"/><circle class="cls-5" cx="278.19" cy="515.34" r="3.5"/><circle class="cls-5" cx="295.6" cy="515.34" r="3.5"/><circle class="cls-5" cx="138.89" cy="536.7" r="3.5"/><circle class="cls-5" cx="156.3" cy="536.7" r="3.5"/><circle class="cls-5" cx="173.71" cy="536.7" r="3.5"/><circle class="cls-5" cx="191.13" cy="536.7" r="3.5"/><circle class="cls-5" cx="208.54" cy="536.7" r="3.5"/><circle class="cls-5" cx="225.95" cy="536.7" r="3.5"/><circle class="cls-5" cx="243.36" cy="536.7" r="3.5"/><circle class="cls-5" cx="260.77" cy="536.7" r="3.5"/><circle class="cls-5" cx="278.19" cy="536.7" r="3.5"/><circle class="cls-5" cx="295.6" cy="536.7" r="3.5"/><circle class="cls-5" cx="138.89" cy="558.06" r="3.5"/><circle class="cls-5" cx="156.3" cy="558.06" r="3.5"/><circle class="cls-5" cx="173.71" cy="558.06" r="3.5"/><circle class="cls-5" cx="191.13" cy="558.06" r="3.5"/><circle class="cls-5" cx="208.54" cy="558.06" r="3.5"/><circle class="cls-5" cx="225.95" cy="558.06" r="3.5"/><circle class="cls-5" cx="243.36" cy="558.06" r="3.5"/><circle class="cls-5" cx="260.77" cy="558.06" r="3.5"/><circle class="cls-5" cx="278.19" cy="558.06" r="3.5"/><circle class="cls-5" cx="295.6" cy="558.06" r="3.5"/><circle class="cls-5" cx="138.89" cy="579.42" r="3.5"/><circle class="cls-5" cx="156.3" cy="579.42" r="3.5"/><circle class="cls-5" cx="173.71" cy="579.42" r="3.5"/><circle class="cls-5" cx="191.13" cy="579.42" r="3.5"/><circle class="cls-5" cx="208.54" cy="579.42" r="3.5"/><circle class="cls-5" cx="225.95" cy="579.42" r="3.5"/><circle class="cls-5" cx="243.36" cy="579.42" r="3.5"/><circle class="cls-5" cx="260.77" cy="579.42" r="3.5"/><circle class="cls-5" cx="278.19" cy="579.42" r="3.5"/><circle class="cls-5" cx="295.6" cy="579.42" r="3.5"/><circle class="cls-5" cx="138.89" cy="600.78" r="3.5"/><circle class="cls-5" cx="156.3" cy="600.78" r="3.5"/><circle class="cls-5" cx="173.71" cy="600.78" r="3.5"/><circle class="cls-5" cx="191.13" cy="600.78" r="3.5"/><circle class="cls-5" cx="208.54" cy="600.78" r="3.5"/><circle class="cls-5" cx="225.95" cy="600.78" r="3.5"/><circle class="cls-5" cx="243.36" cy="600.78" r="3.5"/><circle class="cls-5" cx="260.77" cy="600.78" r="3.5"/><circle class="cls-5" cx="278.19" cy="600.78" r="3.5"/><circle class="cls-5" cx="295.6" cy="600.78" r="3.5"/><circle class="cls-5" cx="138.89" cy="622.14" r="3.5"/><circle class="cls-5" cx="156.3" cy="622.14" r="3.5"/><circle class="cls-5" cx="173.71" cy="622.14" r="3.5"/><circle class="cls-5" cx="191.13" cy="622.14" r="3.5"/><circle class="cls-5" cx="208.54" cy="622.14" r="3.5"/><circle class="cls-5" cx="225.95" cy="622.14" r="3.5"/><circle class="cls-5" cx="243.36" cy="622.14" r="3.5"/><circle class="cls-5" cx="260.77" cy="622.14" r="3.5"/><circle class="cls-5" cx="278.19" cy="622.14" r="3.5"/><circle class="cls-5" cx="295.6" cy="622.14" r="3.5"/><circle class="cls-5" cx="138.89" cy="643.5" r="3.5"/><circle class="cls-5" cx="156.3" cy="643.5" r="3.5"/><circle class="cls-5" cx="173.71" cy="643.5" r="3.5"/><circle class="cls-5" cx="191.13" cy="643.5" r="3.5"/><circle class="cls-5" cx="208.54" cy="643.5" r="3.5"/><circle class="cls-5" cx="225.95" cy="643.5" r="3.5"/><circle class="cls-5" cx="243.36" cy="643.5" r="3.5"/><circle class="cls-5" cx="260.77" cy="643.5" r="3.5"/><circle class="cls-5" cx="278.19" cy="643.5" r="3.5"/><circle class="cls-5" cx="295.6" cy="643.5" r="3.5"/><circle class="cls-5" cx="314.89" cy="622.14" r="3.5"/><circle class="cls-5" cx="332.3" cy="622.14" r="3.5"/><circle class="cls-5" cx="349.71" cy="622.14" r="3.5"/><circle class="cls-5" cx="367.13" cy="622.14" r="3.5"/><circle class="cls-5" cx="384.54" cy="622.14" r="3.5"/><circle class="cls-5" cx="401.95" cy="622.14" r="3.5"/><circle class="cls-5" cx="419.36" cy="622.14" r="3.5"/><circle class="cls-5" cx="436.77" cy="622.14" r="3.5"/><circle class="cls-5" cx="454.19" cy="622.14" r="3.5"/><circle class="cls-5" cx="471.6" cy="622.14" r="3.5"/><circle class="cls-5" cx="314.89" cy="643.5" r="3.5"/><circle class="cls-5" cx="332.3" cy="643.5" r="3.5"/><circle class="cls-5" cx="349.71" cy="643.5" r="3.5"/><circle class="cls-5" cx="367.13" cy="643.5" r="3.5"/><circle class="cls-5" cx="384.54" cy="643.5" r="3.5"/><circle class="cls-5" cx="401.95" cy="643.5" r="3.5"/><circle class="cls-5" cx="419.36" cy="643.5" r="3.5"/><circle class="cls-5" cx="436.77" cy="643.5" r="3.5"/><circle class="cls-5" cx="454.19" cy="643.5" r="3.5"/><circle class="cls-5" cx="471.6" cy="643.5" r="3.5"/><circle class="cls-5" cx="488.89" cy="622.14" r="3.5"/><circle class="cls-5" cx="506.3" cy="622.14" r="3.5"/><circle class="cls-5" cx="523.71" cy="622.14" r="3.5"/><circle class="cls-5" cx="541.13" cy="622.14" r="3.5"/><circle class="cls-5" cx="558.54" cy="622.14" r="3.5"/><circle class="cls-5" cx="575.95" cy="622.14" r="3.5"/><circle class="cls-5" cx="593.36" cy="622.14" r="3.5"/><circle class="cls-5" cx="488.89" cy="643.5" r="3.5"/><circle class="cls-5" cx="506.3" cy="643.5" r="3.5"/><circle class="cls-5" cx="523.71" cy="643.5" r="3.5"/><circle class="cls-5" cx="541.13" cy="643.5" r="3.5"/><circle class="cls-5" cx="558.54" cy="643.5" r="3.5"/><circle class="cls-5" cx="575.95" cy="643.5" r="3.5"/><circle class="cls-5" cx="593.36" cy="643.5" r="3.5"/><circle class="cls-5" cx="751.95" cy="622.14" r="3.5"/><circle class="cls-5" cx="769.36" cy="622.14" r="3.5"/><circle class="cls-5" cx="786.77" cy="622.14" r="3.5"/><circle class="cls-5" cx="751.95" cy="643.5" r="3.5"/><circle class="cls-5" cx="769.36" cy="643.5" r="3.5"/><circle class="cls-5" cx="786.77" cy="643.5" r="3.5"/><circle class="cls-5" cx="629.89" cy="109.5" r="3.5"/><circle class="cls-5" cx="647.3" cy="109.5" r="3.5"/><circle class="cls-5" cx="664.71" cy="109.5" r="3.5"/><circle class="cls-5" cx="682.13" cy="109.5" r="3.5"/><circle class="cls-5" cx="699.54" cy="109.5" r="3.5"/><circle class="cls-5" cx="716.95" cy="109.5" r="3.5"/><circle class="cls-5" cx="751.77" cy="109.5" r="3.5"/><circle class="cls-5" cx="769.19" cy="109.5" r="3.5"/><circle class="cls-5" cx="786.6" cy="109.5" r="3.5"/><circle class="cls-5" cx="629.89" cy="130.86" r="3.5"/><circle class="cls-5" cx="647.3" cy="130.86" r="3.5"/><circle class="cls-5" cx="664.71" cy="130.86" r="3.5"/><circle class="cls-5" cx="682.13" cy="130.86" r="3.5"/><circle class="cls-5" cx="699.54" cy="130.86" r="3.5"/><circle class="cls-5" cx="716.95" cy="130.86" r="3.5"/><circle class="cls-5" cx="751.77" cy="130.86" r="3.5"/><circle class="cls-5" cx="769.19" cy="130.86" r="3.5"/><circle class="cls-5" cx="786.6" cy="130.86" r="3.5"/><circle class="cls-5" cx="629.89" cy="152.22" r="3.5"/><circle class="cls-5" cx="647.3" cy="152.22" r="3.5"/><circle class="cls-5" cx="664.71" cy="152.22" r="3.5"/><circle class="cls-5" cx="682.13" cy="152.22" r="3.5"/><circle class="cls-5" cx="751.77" cy="152.22" r="3.5"/><circle class="cls-5" cx="769.19" cy="152.22" r="3.5"/><circle class="cls-5" cx="786.6" cy="152.22" r="3.5"/><circle class="cls-5" cx="629.89" cy="173.58" r="3.5"/><circle class="cls-5" cx="647.3" cy="173.58" r="3.5"/><circle class="cls-5" cx="664.71" cy="173.58" r="3.5"/><circle class="cls-5" cx="682.13" cy="173.58" r="3.5"/><circle class="cls-5" cx="751.77" cy="173.58" r="3.5"/><circle class="cls-5" cx="769.19" cy="173.58" r="3.5"/><circle class="cls-5" cx="786.6" cy="173.58" r="3.5"/><circle class="cls-5" cx="682.13" cy="194.94" r="3.5"/><circle class="cls-5" cx="699.54" cy="194.94" r="3.5"/><circle class="cls-5" cx="716.95" cy="194.94" r="3.5"/><circle class="cls-5" cx="751.77" cy="194.94" r="3.5"/><circle class="cls-5" cx="769.19" cy="194.94" r="3.5"/><circle class="cls-5" cx="786.6" cy="194.94" r="3.5"/><circle class="cls-5" cx="682.13" cy="216.3" r="3.5"/><circle class="cls-5" cx="699.54" cy="216.3" r="3.5"/><circle class="cls-5" cx="716.95" cy="216.3" r="3.5"/><circle class="cls-5" cx="751.77" cy="216.3" r="3.5"/><circle class="cls-5" cx="769.19" cy="216.3" r="3.5"/><circle class="cls-5" cx="786.6" cy="216.3" r="3.5"/><circle class="cls-5" cx="629.89" cy="237.66" r="3.5"/><circle class="cls-5" cx="647.3" cy="237.66" r="3.5"/><circle class="cls-5" cx="664.71" cy="237.66" r="3.5"/><circle class="cls-5" cx="682.13" cy="237.66" r="3.5"/><circle class="cls-5" cx="699.54" cy="237.66" r="3.5"/><circle class="cls-5" cx="716.95" cy="237.66" r="3.5"/><circle class="cls-5" cx="734.36" cy="237.66" r="3.5"/><circle class="cls-5" cx="751.77" cy="237.66" r="3.5"/><circle class="cls-5" cx="769.19" cy="237.66" r="3.5"/><circle class="cls-5" cx="786.6" cy="237.66" r="3.5"/><circle class="cls-5" cx="629.89" cy="259.02" r="3.5"/><circle class="cls-5" cx="647.3" cy="259.02" r="3.5"/><circle class="cls-5" cx="664.71" cy="259.02" r="3.5"/><circle class="cls-5" cx="682.13" cy="259.02" r="3.5"/><circle class="cls-5" cx="699.54" cy="259.02" r="3.5"/><circle class="cls-5" cx="716.95" cy="259.02" r="3.5"/><circle class="cls-5" cx="734.36" cy="259.02" r="3.5"/><circle class="cls-5" cx="751.77" cy="259.02" r="3.5"/><circle class="cls-5" cx="769.19" cy="259.02" r="3.5"/><circle class="cls-5" cx="786.6" cy="259.02" r="3.5"/><circle class="cls-5" cx="629.89" cy="280.38" r="3.5"/><circle class="cls-5" cx="647.3" cy="280.38" r="3.5"/><circle class="cls-5" cx="664.71" cy="280.38" r="3.5"/><circle class="cls-5" cx="682.13" cy="280.38" r="3.5"/><circle class="cls-5" cx="699.54" cy="280.38" r="3.5"/><circle class="cls-5" cx="716.95" cy="280.38" r="3.5"/><circle class="cls-5" cx="734.36" cy="280.38" r="3.5"/><circle class="cls-5" cx="751.77" cy="280.38" r="3.5"/><circle class="cls-5" cx="769.19" cy="280.38" r="3.5"/><circle class="cls-5" cx="786.6" cy="280.38" r="3.5"/><circle class="cls-5" cx="629.89" cy="301.74" r="3.5"/><circle class="cls-5" cx="647.3" cy="301.74" r="3.5"/><circle class="cls-5" cx="664.71" cy="301.74" r="3.5"/><circle class="cls-5" cx="682.13" cy="301.74" r="3.5"/><circle class="cls-5" cx="699.54" cy="301.74" r="3.5"/><circle class="cls-5" cx="716.95" cy="301.74" r="3.5"/><circle class="cls-5" cx="734.36" cy="301.74" r="3.5"/><circle class="cls-5" cx="751.77" cy="301.74" r="3.5"/><circle class="cls-5" cx="769.19" cy="301.74" r="3.5"/><circle class="cls-5" cx="786.6" cy="301.74" r="3.5"/><circle class="cls-5" cx="629.89" cy="323.1" r="3.5"/><circle class="cls-5" cx="647.3" cy="323.1" r="3.5"/><circle class="cls-5" cx="664.71" cy="323.1" r="3.5"/><circle class="cls-5" cx="682.13" cy="323.1" r="3.5"/><circle class="cls-5" cx="699.54" cy="323.1" r="3.5"/><circle class="cls-5" cx="716.95" cy="323.1" r="3.5"/><circle class="cls-5" cx="734.36" cy="323.1" r="3.5"/><circle class="cls-5" cx="751.77" cy="323.1" r="3.5"/><circle class="cls-5" cx="769.19" cy="323.1" r="3.5"/><circle class="cls-5" cx="786.6" cy="323.1" r="3.5"/><circle class="cls-5" cx="629.89" cy="344.46" r="3.5"/><circle class="cls-5" cx="647.3" cy="344.46" r="3.5"/><circle class="cls-5" cx="664.71" cy="344.46" r="3.5"/><circle class="cls-5" cx="682.13" cy="344.46" r="3.5"/><circle class="cls-5" cx="699.54" cy="344.46" r="3.5"/><circle class="cls-5" cx="716.95" cy="344.46" r="3.5"/><circle class="cls-5" cx="734.36" cy="344.46" r="3.5"/><circle class="cls-5" cx="751.77" cy="344.46" r="3.5"/><circle class="cls-5" cx="769.19" cy="344.46" r="3.5"/><circle class="cls-5" cx="786.6" cy="344.46" r="3.5"/><circle class="cls-5" cx="629.89" cy="365.82" r="3.5"/><circle class="cls-5" cx="647.3" cy="365.82" r="3.5"/><circle class="cls-5" cx="664.71" cy="365.82" r="3.5"/><circle class="cls-5" cx="682.13" cy="365.82" r="3.5"/><circle class="cls-5" cx="699.54" cy="365.82" r="3.5"/><circle class="cls-5" cx="716.95" cy="365.82" r="3.5"/><circle class="cls-5" cx="734.36" cy="365.82" r="3.5"/><circle class="cls-5" cx="751.77" cy="365.82" r="3.5"/><circle class="cls-5" cx="769.19" cy="365.82" r="3.5"/><circle class="cls-5" cx="786.6" cy="365.82" r="3.5"/><circle class="cls-5" cx="629.89" cy="387.18" r="3.5"/><circle class="cls-5" cx="647.3" cy="387.18" r="3.5"/><circle class="cls-5" cx="664.71" cy="387.18" r="3.5"/><circle class="cls-5" cx="682.13" cy="387.18" r="3.5"/><circle class="cls-5" cx="699.54" cy="387.18" r="3.5"/><circle class="cls-5" cx="716.95" cy="387.18" r="3.5"/><circle class="cls-5" cx="734.36" cy="387.18" r="3.5"/><circle class="cls-5" cx="751.77" cy="387.18" r="3.5"/><circle class="cls-5" cx="769.19" cy="387.18" r="3.5"/><circle class="cls-5" cx="786.6" cy="387.18" r="3.5"/><circle class="cls-5" cx="629.89" cy="408.54" r="3.5"/><circle class="cls-5" cx="647.3" cy="408.54" r="3.5"/><circle class="cls-5" cx="664.71" cy="408.54" r="3.5"/><circle class="cls-5" cx="682.13" cy="408.54" r="3.5"/><circle class="cls-5" cx="699.54" cy="408.54" r="3.5"/><circle class="cls-5" cx="716.95" cy="408.54" r="3.5"/><circle class="cls-5" cx="734.36" cy="408.54" r="3.5"/><circle class="cls-5" cx="751.77" cy="408.54" r="3.5"/><circle class="cls-5" cx="769.19" cy="408.54" r="3.5"/><circle class="cls-5" cx="786.6" cy="408.54" r="3.5"/><circle class="cls-5" cx="629.89" cy="429.9" r="3.5"/><circle class="cls-5" cx="647.3" cy="429.9" r="3.5"/><circle class="cls-5" cx="664.71" cy="429.9" r="3.5"/><circle class="cls-5" cx="682.13" cy="429.9" r="3.5"/><circle class="cls-5" cx="699.54" cy="429.9" r="3.5"/><circle class="cls-5" cx="716.95" cy="429.9" r="3.5"/><circle class="cls-5" cx="734.36" cy="429.9" r="3.5"/><circle class="cls-5" cx="751.77" cy="429.9" r="3.5"/><circle class="cls-5" cx="769.19" cy="429.9" r="3.5"/><circle class="cls-5" cx="786.6" cy="429.9" r="3.5"/><circle class="cls-5" cx="629.89" cy="451.26" r="3.5"/><circle class="cls-5" cx="647.3" cy="451.26" r="3.5"/><circle class="cls-5" cx="664.71" cy="451.26" r="3.5"/><circle class="cls-5" cx="682.13" cy="451.26" r="3.5"/><circle class="cls-5" cx="699.54" cy="451.26" r="3.5"/><circle class="cls-5" cx="716.95" cy="451.26" r="3.5"/><circle class="cls-5" cx="734.36" cy="451.26" r="3.5"/><circle class="cls-5" cx="751.77" cy="451.26" r="3.5"/><circle class="cls-5" cx="769.19" cy="451.26" r="3.5"/><circle class="cls-5" cx="786.6" cy="451.26" r="3.5"/><circle class="cls-5" cx="629.89" cy="472.62" r="3.5"/><circle class="cls-5" cx="647.3" cy="472.62" r="3.5"/><circle class="cls-5" cx="664.71" cy="472.62" r="3.5"/><circle class="cls-5" cx="682.13" cy="472.62" r="3.5"/><circle class="cls-5" cx="699.54" cy="472.62" r="3.5"/><circle class="cls-5" cx="716.95" cy="472.62" r="3.5"/><circle class="cls-5" cx="734.36" cy="472.62" r="3.5"/><circle class="cls-5" cx="751.77" cy="472.62" r="3.5"/><circle class="cls-5" cx="769.19" cy="472.62" r="3.5"/><circle class="cls-5" cx="786.6" cy="472.62" r="3.5"/><circle class="cls-5" cx="629.89" cy="493.98" r="3.5"/><circle class="cls-5" cx="647.3" cy="493.98" r="3.5"/><circle class="cls-5" cx="664.71" cy="493.98" r="3.5"/><circle class="cls-5" cx="682.13" cy="493.98" r="3.5"/><circle class="cls-5" cx="699.54" cy="493.98" r="3.5"/><circle class="cls-5" cx="716.95" cy="493.98" r="3.5"/><circle class="cls-5" cx="734.36" cy="493.98" r="3.5"/><circle class="cls-5" cx="751.77" cy="493.98" r="3.5"/><circle class="cls-5" cx="769.19" cy="493.98" r="3.5"/><circle class="cls-5" cx="786.6" cy="493.98" r="3.5"/><circle class="cls-5" cx="629.89" cy="515.34" r="3.5"/><circle class="cls-5" cx="647.3" cy="515.34" r="3.5"/><circle class="cls-5" cx="664.71" cy="515.34" r="3.5"/><circle class="cls-5" cx="682.13" cy="515.34" r="3.5"/><circle class="cls-5" cx="699.54" cy="515.34" r="3.5"/><circle class="cls-5" cx="716.95" cy="515.34" r="3.5"/><circle class="cls-5" cx="734.36" cy="515.34" r="3.5"/><circle class="cls-5" cx="751.77" cy="515.34" r="3.5"/><circle class="cls-5" cx="769.19" cy="515.34" r="3.5"/><circle class="cls-5" cx="786.6" cy="515.34" r="3.5"/><circle class="cls-5" cx="629.89" cy="536.7" r="3.5"/><circle class="cls-5" cx="647.3" cy="536.7" r="3.5"/><circle class="cls-5" cx="664.71" cy="536.7" r="3.5"/><circle class="cls-5" cx="682.13" cy="536.7" r="3.5"/><circle class="cls-5" cx="699.54" cy="536.7" r="3.5"/><circle class="cls-5" cx="716.95" cy="536.7" r="3.5"/><circle class="cls-5" cx="734.36" cy="536.7" r="3.5"/><circle class="cls-5" cx="751.77" cy="536.7" r="3.5"/><circle class="cls-5" cx="769.19" cy="536.7" r="3.5"/><circle class="cls-5" cx="786.6" cy="536.7" r="3.5"/><circle class="cls-5" cx="629.89" cy="558.06" r="3.5"/><circle class="cls-5" cx="647.3" cy="558.06" r="3.5"/><circle class="cls-5" cx="664.71" cy="558.06" r="3.5"/><circle class="cls-5" cx="682.13" cy="558.06" r="3.5"/><circle class="cls-5" cx="699.54" cy="558.06" r="3.5"/><circle class="cls-5" cx="716.95" cy="558.06" r="3.5"/><circle class="cls-5" cx="734.36" cy="558.06" r="3.5"/><circle class="cls-5" cx="751.77" cy="558.06" r="3.5"/><circle class="cls-5" cx="769.19" cy="558.06" r="3.5"/><circle class="cls-5" cx="786.6" cy="558.06" r="3.5"/><circle class="cls-5" cx="629.89" cy="579.42" r="3.5"/><circle class="cls-5" cx="647.3" cy="579.42" r="3.5"/><circle class="cls-5" cx="664.71" cy="579.42" r="3.5"/><circle class="cls-5" cx="682.13" cy="579.42" r="3.5"/><circle class="cls-5" cx="699.54" cy="579.42" r="3.5"/><circle class="cls-5" cx="716.95" cy="579.42" r="3.5"/><circle class="cls-5" cx="734.36" cy="579.42" r="3.5"/><circle class="cls-5" cx="751.77" cy="579.42" r="3.5"/><circle class="cls-5" cx="769.19" cy="579.42" r="3.5"/><circle class="cls-5" cx="786.6" cy="579.42" r="3.5"/><circle class="cls-5" cx="629.89" cy="600.78" r="3.5"/><circle class="cls-5" cx="647.3" cy="600.78" r="3.5"/><circle class="cls-5" cx="664.71" cy="600.78" r="3.5"/><circle class="cls-5" cx="682.13" cy="600.78" r="3.5"/><circle class="cls-5" cx="699.54" cy="600.78" r="3.5"/><circle class="cls-5" cx="716.95" cy="600.78" r="3.5"/><circle class="cls-5" cx="734.36" cy="600.78" r="3.5"/><circle class="cls-5" cx="751.77" cy="600.78" r="3.5"/><circle class="cls-5" cx="769.19" cy="600.78" r="3.5"/><circle class="cls-5" cx="786.6" cy="600.78" r="3.5"/><circle class="cls-5" cx="596.89" cy="109.5" r="3.5"/><circle class="cls-5" cx="614.3" cy="109.5" r="3.5"/><circle class="cls-5" cx="311.19" cy="109.5" r="3.5"/><circle class="cls-5" cx="328.6" cy="109.5" r="3.5"/><rect class="cls-6" x="342.64" y="26.5" width="241" height="97"/><rect class="cls-6" x="326.39" y="2.5" width="273.5" height="24"/><path class="cls-7" d="M525.62,283.67v-5.35h5.44a5,5,0,0,0,.74,0h0a1.9,1.9,0,0,0,.77-.31l0,0a1.24,1.24,0,0,0,.4-.62,2.43,2.43,0,0,0,.06-.67h0v-7a.2.2,0,0,0-.21-.2h-7.24v-5.35h7.24a.21.21,0,0,0,.21-.21v-2h0a5.79,5.79,0,0,0-.16-1.48h0a3.54,3.54,0,0,0-.73-1.48,3.1,3.1,0,0,0-1.06-.88,4.08,4.08,0,0,0-1.19-.4,5.55,5.55,0,0,0-1.13-.09h-3.18v-5.35h5.55a10.44,10.44,0,0,1,3.73.67,8,8,0,0,1,1.55.76.21.21,0,0,1,.09.23c-.58,2-.33,4.58-1.85,6.39a.08.08,0,0,0,.1.13,18.56,18.56,0,0,1,4.74-1.41.21.21,0,0,1,.24.17A16.42,16.42,0,0,1,540,262v16.34h0a10,10,0,0,1-.07,1.29h0a6.3,6.3,0,0,1-.35,1.44,4.08,4.08,0,0,1-.82,1.3h0a3.59,3.59,0,0,1-1.29.82,6.44,6.44,0,0,1-1.5.36h0c-.52,0-1,.07-1.53.07Zm0-31.5v5.35H513.49a.21.21,0,0,1-.21-.21v-4.93a.22.22,0,0,1,.21-.21Zm0,11.89v5.35h-4.14a4,4,0,0,0-.7,0,3,3,0,0,0-.95.29h0a2.41,2.41,0,0,0-.89.72h0a2.55,2.55,0,0,0-.3.5,4.53,4.53,0,0,0-.31,1.07h0a8.87,8.87,0,0,0-.15,1.81c0,.33,0,.7.06,1.13h0a7.22,7.22,0,0,0,.27,1.29,3.1,3.1,0,0,0,.61,1.08h0a3.42,3.42,0,0,0,1,.65h0a3.12,3.12,0,0,0,1.28.3h4.26v5.35H519.4c-.58,0-1.19,0-1.85-.06a8.13,8.13,0,0,1-2-.4,5.79,5.79,0,0,1-1.89-1.09h0a6.44,6.44,0,0,1-1.51-1.94,10.16,10.16,0,0,1-.82-2.3,17.59,17.59,0,0,1-.33-2.31c-.05-.75-.08-1.42-.07-2h0a19.39,19.39,0,0,1,.17-2.76,8.78,8.78,0,0,1,.75-2.61,6.94,6.94,0,0,1,1.75-2.29h0a7.17,7.17,0,0,1,2-1.25,7.82,7.82,0,0,1,2-.49,12.84,12.84,0,0,1,1.8-.1h6.22ZM460.79,283.6v-5.28h14a.21.21,0,0,1,.21.21v5.14h0l-14.15-.07Zm0-13.36v-5.35h6.45a1.57,1.57,0,0,0,1-.3h0a1.36,1.36,0,0,0,.43-.69h0a2.75,2.75,0,0,0,.1-.85h0a5.27,5.27,0,0,0-.3-1.78,5.1,5.1,0,0,0-.75-1.43,4.88,4.88,0,0,0-1-1,6.12,6.12,0,0,0-1.87-.95,9.57,9.57,0,0,0-2-.4,20,20,0,0,0-2-.08h0v-5.35h.33c1.23,0,2.46,0,3.68.11a19.23,19.23,0,0,1,3.54.56,11.26,11.26,0,0,1,3,1.25.2.2,0,0,1,.1.22c-.45,2-.33,4.32-1.75,6a.08.08,0,0,0,.1.13,18.56,18.56,0,0,1,5.26-1.48.21.21,0,0,1,.22.14,10.72,10.72,0,0,1,.35,1.38,20.14,20.14,0,0,1,.34,3.9h0a11.77,11.77,0,0,1-.1,1.65h0a6.68,6.68,0,0,1-.41,1.64h0a4.75,4.75,0,0,1-1,1.45h0a3.73,3.73,0,0,1-1.58.95,6,6,0,0,1-1.8.24H460.79Zm25.84,13.43a.21.21,0,0,0,.21-.21V244a.21.21,0,0,0-.23-.21,18.76,18.76,0,0,0-5.34,1.49.08.08,0,0,1-.09-.13c2-2.37.95-6,2.68-8.07a4.4,4.4,0,0,1,2.8-1.5.2.2,0,0,0,.18-.2v-1.73a.21.21,0,0,0-.21-.21H480.1a.21.21,0,0,0-.21.21v49.84a.22.22,0,0,0,.21.21Zm23.14,0a.21.21,0,0,0,.15-.36l-12.56-13.25a7.36,7.36,0,0,1-1-1.39,3.23,3.23,0,0,1-.46-1.52h0a2.85,2.85,0,0,1,.31-1.28h0a4.53,4.53,0,0,1,.7-1h0l11.49-12.36a.21.21,0,0,0-.15-.36h-7.51a.21.21,0,0,0-.15.07l-9.45,10.39c-.31.34-.63.72-1,1.15a6.37,6.37,0,0,0-.86,1.55,5.51,5.51,0,0,0-.38,2.05h0a5.83,5.83,0,0,0,.36,2,7.15,7.15,0,0,0,.83,1.58,10.59,10.59,0,0,0,.95,1.17l10.81,11.46a.24.24,0,0,0,.16.07Zm-49-31.62v5.35c-.62,0-1.31,0-2.08.06h0a8.68,8.68,0,0,0-2.34.53,5.55,5.55,0,0,0-2.15,1.49h0a5.15,5.15,0,0,0-1,1.66,6.54,6.54,0,0,0-.35,1.78c0,.56-.07,1.14-.08,1.76a.21.21,0,0,0,.21.21h7.78v5.35H453a.21.21,0,0,0-.21.21c0,.4,0,.84.06,1.3h0c0,.56.07,1.08.13,1.58h0a10.49,10.49,0,0,0,.21,1.24h0a5,5,0,0,0,1,2,4.22,4.22,0,0,0,1.55,1.12,6.81,6.81,0,0,0,1.86.5,14,14,0,0,0,1.94.11h1.22v5.28l-5.78,0h0a11.42,11.42,0,0,1-2.55-.51,8.65,8.65,0,0,1-4.58-3.36h0a10.66,10.66,0,0,1-1.5-3.36,20,20,0,0,1-.62-3.94c-.1-1.38-.14-2.77-.13-4.16s0-2.84.1-4.13a21.12,21.12,0,0,1,.48-3.56,11,11,0,0,1,1.12-3,9.15,9.15,0,0,1,2-2.48h0a10.35,10.35,0,0,1,2.87-1.71,16,16,0,0,1,3.19-.89,23.07,23.07,0,0,1,3.1-.31c.84,0,1.61-.06,2.28-.06Zm-38.51,31.62v-6.46c2.22-.06,4-.11,4.11-.13h0a8.35,8.35,0,0,0,3-1.21,7.18,7.18,0,0,0,2.15-2.29h0a9.26,9.26,0,0,0,1-2.18,19.85,19.85,0,0,0,.78-3.75,48.47,48.47,0,0,0,.31-5.83,35.62,35.62,0,0,0-.16-3.69,15.4,15.4,0,0,0-.83-3.64,9.07,9.07,0,0,0-1.92-3.13h0a8.71,8.71,0,0,0-2.74-1.9h0a13.61,13.61,0,0,0-3.15-.9,20.87,20.87,0,0,0-2.52-.23v-6.24h3a18.91,18.91,0,0,1,5.16.68,15.19,15.19,0,0,1,4,1.76c.31.2.61.41.9.62a.23.23,0,0,1,.08.23c-.54,2-.33,4.52-1.82,6.31h0a.09.09,0,0,0,.09.14,17.9,17.9,0,0,1,5.8-1.53.19.19,0,0,1,.2.11l.09.2a17.66,17.66,0,0,1,1.26,3.91,27.66,27.66,0,0,1,.51,4c.07,1.34.1,2.63.08,3.88h0c0,1.13,0,2.4-.09,3.79a36.8,36.8,0,0,1-.48,4.29,23.21,23.21,0,0,1-1.11,4.28,14.5,14.5,0,0,1-2,3.8,11.79,11.79,0,0,1-1.6,1.72h0a12.08,12.08,0,0,1-2.39,1.65,13.93,13.93,0,0,1-3.31,1.25,18.28,18.28,0,0,1-4.35.49Zm-18.23-45.52a.2.2,0,0,0-.13.21,4.26,4.26,0,0,1-.3,2.34V238a.44.44,0,0,0,.13-.57l-.13-.24V235a4.08,4.08,0,0,0,.66-1.59,10.18,10.18,0,0,0,.17-2.08.45.45,0,0,0-.45-.44.46.46,0,0,0-.38.23v-8a9.72,9.72,0,0,1,.62,1.11.2.2,0,0,0,.36,0l.85-1.24a.2.2,0,0,1,.32,0c3,3.07,4,12.59-1.72,15.2Zm18.23,3.92v6.24h-8.65a5.94,5.94,0,0,0-.89.05,2,2,0,0,0-.94.37h0a1.94,1.94,0,0,0-.59.84h0a3.08,3.08,0,0,0-.23,1.24v23.76h0a7.76,7.76,0,0,0,0,1.19h0a1.88,1.88,0,0,0,.49,1.05h0a1.77,1.77,0,0,0,.94.52h0a5.55,5.55,0,0,0,1.08.07h0l8.76-.22v6.46h-12.8a12,12,0,0,1-2.51-.24,6.28,6.28,0,0,1-1.48-.5,3.45,3.45,0,0,1-.64-.39h0a4.43,4.43,0,0,1-.78-.82h0a4.2,4.2,0,0,1-.43-.76V245.32a5.43,5.43,0,0,1,.93-1.46,5.32,5.32,0,0,1,.86-.76,5.75,5.75,0,0,1,1.47-.71,6.81,6.81,0,0,1,2.12-.32Zm-18.66-1.37a3.86,3.86,0,0,1-2.36,2v-5.82a3.64,3.64,0,0,0,.73-.31.22.22,0,0,1,.28.07c.24.4.48.81.71,1.23a.45.45,0,0,0,.6.18l0,0v2.68Zm-2.36-20.13v7.29l.12,0a.44.44,0,0,1,.51.36,6.28,6.28,0,0,1-.52,3.89.38.38,0,0,1-.11.14v1.33a37.34,37.34,0,0,1,2.36,3.67V235l0,.05a.44.44,0,1,1-.71-.53,3.16,3.16,0,0,0,.54-1.29,9.85,9.85,0,0,0,.15-1.89.51.51,0,0,1,.05-.22v-8a9.69,9.69,0,0,0-2.36-2.51Zm2.36,24.75v35.62c-.08-.18-.15-.37-.22-.58a6.75,6.75,0,0,1-.28-2h0V248.73h0a14.77,14.77,0,0,1,.07-1.61,6.74,6.74,0,0,1,.38-1.66h0l.05-.14Zm-2.36-9.38v-.87l.31.47a.21.21,0,0,1-.08.3Zm0,6.76a8.62,8.62,0,0,1-2.83.42,12.26,12.26,0,0,1-4-.62V231.9a5.24,5.24,0,0,0,2-1.41,4.46,4.46,0,0,0,.33-.43.22.22,0,0,1,.32,0,29.85,29.85,0,0,1,4.24,5v.87a3.58,3.58,0,0,1-1.17.25,9,9,0,0,1-2.87-.37.44.44,0,1,0-.24.84,9.38,9.38,0,0,0,3.16.41,4.94,4.94,0,0,0,1.12-.19v5.82Zm-6.85-24.88v9q.63.42,1.26.9c.22.16.43.33.65.51a.2.2,0,0,0,.33-.11,5.68,5.68,0,0,0,.17-.84,6.89,6.89,0,0,0-.2-2.51.45.45,0,0,1,.32-.54.46.46,0,0,1,.54.32,8,8,0,0,1,.21,2.83,5.92,5.92,0,0,1-.38,1.53.2.2,0,0,0,.06.23,29.3,29.3,0,0,1,3.89,4.38v-1.33a.44.44,0,0,1-.48.07.45.45,0,0,1-.21-.59,5.12,5.12,0,0,0,.5-1.63,5.6,5.6,0,0,0,0-1.73.44.44,0,0,1,.23-.47v-7.29c-1.77-1.37-3.71-2.2-5.17-4.35a.2.2,0,0,0-.3-.05,4.4,4.4,0,0,0-1.38,1.65Zm0,13.11a4.32,4.32,0,0,0,1.66-1.5.22.22,0,0,0,0-.28l-.89-.71c-.24-.19-.49-.36-.73-.53Zm0,11.57c-3.09-1-4.72-3.05-7.17-3.54a.21.21,0,0,1-.15-.29A3.88,3.88,0,0,1,388.4,237a.2.2,0,0,0,0-.36,12,12,0,0,1-5.65-3.83.21.21,0,0,1,.05-.3l2.26-1.61a.2.2,0,0,0,0-.33c-4.35-3.46-3.89-7-5.75-10.78a.2.2,0,0,1,.17-.3c5.41-.51,9.07-2.74,14.26.19a.2.2,0,0,0,.31-.17,4.22,4.22,0,0,1,.4-1.72v9a20.09,20.09,0,0,0-8.92-3.23.44.44,0,1,0-.09.87,19.26,19.26,0,0,1,9,3.43v3a5.16,5.16,0,0,1-1.06.4,6,6,0,0,1-2.17.11.44.44,0,1,0-.1.88,7,7,0,0,0,2.49-.14,5.91,5.91,0,0,0,.84-.28Z"/><line class="cls-8" x1="664.39" y1="204.5" x2="623.2" y2="204.5"/><polygon class="cls-9" points="624.28 200.81 617.89 204.5 624.28 208.19 624.28 200.81"/><line class="cls-8" x1="260.89" y1="268.5" x2="303.66" y2="268.5"/><polygon class="cls-9" points="302.9 271.09 307.39 268.5 302.9 265.91 302.9 271.09"/><line class="cls-8" x1="736.14" y1="218.01" x2="736.14" y2="91.74"/><polygon class="cls-9" points="739.43 217.05 736.14 222.75 732.85 217.05 739.43 217.05"/><polygon class="cls-9" points="739.43 92.7 736.14 87 732.85 92.7 739.43 92.7"/><path class="cls-10" d="M697,175.37l11.53-15.77-9.7-13.36h5.41l7,9.65,7-9.65h5.32l-9.73,13.27,11.56,15.86H720l-8.82-12.11-8.86,12.11Z"/><line class="cls-8" x1="634.39" y1="80.26" x2="634.39" y2="4.74"/><polygon class="cls-9" points="637.68 79.3 634.39 85 631.1 79.3 637.68 79.3"/><polygon class="cls-9" points="637.68 5.7 634.39 0 631.1 5.7 637.68 5.7"/><path class="cls-11" d="M656.94,56.37V53l9.15-8.57a30.45,30.45,0,0,0,4.29-4.66,7.1,7.1,0,0,0,1.25-4c0-3-2.33-4.91-5.78-4.91a11.75,11.75,0,0,0-8.16,3.62V29.74a12.88,12.88,0,0,1,8.61-3,10.61,10.61,0,0,1,7,2.37,7.58,7.58,0,0,1,2.92,6.2,10.15,10.15,0,0,1-1.46,5.37,30.91,30.91,0,0,1-4.91,5.66l-6.28,6H677.2v4.08Z"/><path class="cls-11" d="M685.07,52.54a17.43,17.43,0,0,1-3.33-10.74,17.28,17.28,0,0,1,3.33-10.69,11.2,11.2,0,0,1,17.81,0,17.12,17.12,0,0,1,3.37,10.69,17.27,17.27,0,0,1-3.37,10.74,11.26,11.26,0,0,1-17.81,0Zm14.48-3a13.44,13.44,0,0,0,2.12-7.7,13.43,13.43,0,0,0-2.12-7.69A6.5,6.5,0,0,0,694,31a6.37,6.37,0,0,0-5.53,3.16,13.22,13.22,0,0,0-2.12,7.65,13.45,13.45,0,0,0,2.12,7.7A6.42,6.42,0,0,0,694,52.62,6.5,6.5,0,0,0,699.55,49.5Z"/><path class="cls-11" d="M714.44,52.54a17.49,17.49,0,0,1-3.32-10.74,17.34,17.34,0,0,1,3.32-10.69,11.2,11.2,0,0,1,17.81,0,17.06,17.06,0,0,1,3.37,10.69,17.21,17.21,0,0,1-3.37,10.74,11.26,11.26,0,0,1-17.81,0Zm14.49-3a13.44,13.44,0,0,0,2.12-7.7,13.43,13.43,0,0,0-2.12-7.69A6.5,6.5,0,0,0,723.35,31a6.39,6.39,0,0,0-5.54,3.16,13.3,13.3,0,0,0-2.12,7.65,13.53,13.53,0,0,0,2.12,7.7,6.51,6.51,0,0,0,11.12,0Z"/><path class="cls-11" d="M739.81,56.37V45.08h2.43l3.87,4.69L750,45.08h2.44V56.37H750V48.46l-3.45,4.16h-1l-3.42-4.16v7.91Z"/><path class="cls-11" d="M756,56.37V45.08h2.43l3.87,4.69,3.88-4.69h2.44V56.37h-2.39V48.46l-3.45,4.16h-1l-3.42-4.16v7.91Z"/><line class="cls-8" x1="85.13" y1="57.88" x2="302.66" y2="57.88"/><polygon class="cls-9" points="86.09 61.17 80.39 57.88 86.09 54.58 86.09 61.17"/><polygon class="cls-9" points="301.69 61.17 307.39 57.88 301.69 54.58 301.69 61.17"/><path class="cls-11" d="M141.94,40.7V36.25a14.09,14.09,0,0,0,8.45,2.58,7.92,7.92,0,0,0,5-1.58,5.28,5.28,0,0,0,2.08-4.33c0-3.33-2.62-5.66-6.74-5.66a10,10,0,0,0-3.7.67V24.81l7.82-7.58H143v-4h17.85v3.45l-7.44,7.16a10.12,10.12,0,0,1,6.07,2.83A8.19,8.19,0,0,1,162,32.92a8.91,8.91,0,0,1-3.29,7.24,12.13,12.13,0,0,1-8.11,2.75A16.12,16.12,0,0,1,141.94,40.7Z"/><path class="cls-11" d="M169.94,38.54a17.49,17.49,0,0,1-3.33-10.74,17.35,17.35,0,0,1,3.33-10.69,11.2,11.2,0,0,1,17.81,0,17.06,17.06,0,0,1,3.37,10.69,17.21,17.21,0,0,1-3.37,10.74,11.26,11.26,0,0,1-17.81,0Zm14.48-3a13.37,13.37,0,0,0,2.13-7.7,13.36,13.36,0,0,0-2.13-7.69A6.47,6.47,0,0,0,178.85,17a6.39,6.39,0,0,0-5.54,3.16,13.3,13.3,0,0,0-2.12,7.65,13.53,13.53,0,0,0,2.12,7.7,6.51,6.51,0,0,0,11.11,0Z"/><path class="cls-11" d="M199.32,38.54A17.43,17.43,0,0,1,196,27.8a17.28,17.28,0,0,1,3.33-10.69,11.2,11.2,0,0,1,17.81,0A17.12,17.12,0,0,1,220.5,27.8a17.27,17.27,0,0,1-3.37,10.74,11.26,11.26,0,0,1-17.81,0Zm14.48-3a13.44,13.44,0,0,0,2.12-7.7,13.43,13.43,0,0,0-2.12-7.69A6.5,6.5,0,0,0,208.22,17a6.37,6.37,0,0,0-5.53,3.16,13.22,13.22,0,0,0-2.12,7.65,13.45,13.45,0,0,0,2.12,7.7,6.42,6.42,0,0,0,5.53,3.12A6.5,6.5,0,0,0,213.8,35.5Z"/><path class="cls-11" d="M224.68,42.37V31.08h2.44L231,35.77l3.89-4.69h2.44V42.37h-2.4V34.46l-3.45,4.16h-1l-3.43-4.16v7.91Z"/><path class="cls-11" d="M240.85,42.37V31.08h2.44l3.86,4.69L251,31.08h2.43V42.37h-2.39V34.46l-3.45,4.16h-1l-3.43-4.16v7.91Z"/><line class="cls-8" x1="226.14" y1="282.01" x2="226.14" y2="92.74"/><polygon class="cls-9" points="229.43 281.05 226.14 286.75 222.85 281.05 229.43 281.05"/><polygon class="cls-9" points="229.43 93.7 226.14 88 222.85 93.7 229.43 93.7"/><path class="cls-10" d="M249.22,176.37V163.18l-11.28-15.94h5.33L251.59,159l8.32-11.78h5.16L253.8,163.05v13.32Z"/><line class="cls-8" x1="612.14" y1="652.26" x2="612.14" y2="613.74"/><polygon class="cls-9" points="615.43 651.3 612.14 657 608.85 651.3 615.43 651.3"/><polygon class="cls-9" points="615.43 614.7 612.14 609 608.85 614.7 615.43 614.7"/><path class="cls-11" d="M636.72,647.37V623.15l-6.36,3.41v-4.45l6.86-3.87h4v29.13Z"/><path class="cls-11" d="M651,643.54a19,19,0,0,1,0-21.43,11.2,11.2,0,0,1,17.81,0,18.72,18.72,0,0,1,0,21.43,11.26,11.26,0,0,1-17.81,0Zm14.49-3a15,15,0,0,0,0-15.39,6.5,6.5,0,0,0-5.58-3.12,6.39,6.39,0,0,0-5.54,3.16,13.3,13.3,0,0,0-2.12,7.65,13.53,13.53,0,0,0,2.12,7.7,6.51,6.51,0,0,0,11.12,0Z"/><path class="cls-11" d="M680.33,643.54a18.9,18.9,0,0,1,0-21.43,11.2,11.2,0,0,1,17.81,0,18.72,18.72,0,0,1,0,21.43,11.26,11.26,0,0,1-17.81,0Zm14.48-3a15,15,0,0,0,0-15.39,6.49,6.49,0,0,0-5.58-3.12,6.38,6.38,0,0,0-5.53,3.16,13.3,13.3,0,0,0-2.12,7.65,13.53,13.53,0,0,0,2.12,7.7,6.51,6.51,0,0,0,11.11,0Z"/><path class="cls-11" d="M705.69,647.37V636.08h2.44l3.86,4.69,3.89-4.69h2.44v11.29h-2.39v-7.91l-3.45,4.16h-1l-3.43-4.16v7.91Z"/><path class="cls-11" d="M721.86,647.37V636.08h2.44l3.86,4.69,3.89-4.69h2.44v11.29h-2.4v-7.91l-3.44,4.16h-1l-3.43-4.16v7.91Z"/><polygon class="cls-12" points="330.23 87.45 323.99 92.11 317.08 86.95 310.18 92.11 303.28 86.95 296.37 92.11 289.47 86.95 282.57 92.11 275.66 86.95 268.76 92.11 261.86 86.95 254.96 92.11 248.06 86.95 241.15 92.11 234.39 87.06 234.39 91.56 241.15 96.62 248.06 91.46 254.96 96.62 261.86 91.46 268.76 96.62 275.66 91.46 282.57 96.62 289.47 91.46 296.37 96.62 303.28 91.46 310.18 96.62 317.08 91.46 323.99 96.62 332.39 90.34 330.23 87.45"/><polygon class="cls-12" points="217.39 89.96 214.51 92.11 207.61 86.95 200.71 92.11 193.8 86.95 186.9 92.11 179.99 86.95 173.09 92.11 166.19 86.95 159.29 92.11 152.38 86.95 145.48 92.11 138.58 86.95 131.68 92.11 124.78 86.95 117.87 92.11 111.64 87.45 111.46 87.69 111.28 87.45 105.04 92.11 98.13 86.95 91.23 92.11 84.33 86.95 77.42 92.11 70.52 86.95 63.62 92.11 56.71 86.95 49.81 92.11 42.91 86.95 36.01 92.11 29.1 86.95 22.2 92.11 15.3 86.95 8.4 92.11 2.16 87.45 0 90.34 8.4 96.62 15.3 91.46 22.2 96.62 29.1 91.46 36.01 96.62 42.91 91.46 49.81 96.62 56.71 91.46 63.62 96.62 70.52 91.46 77.42 96.62 84.33 91.46 91.23 96.62 98.13 91.46 105.04 96.62 111.46 91.83 117.87 96.62 124.78 91.46 131.68 96.62 138.58 91.46 145.48 96.62 152.38 91.46 159.29 96.62 166.19 91.46 173.09 96.62 179.99 91.46 186.9 96.62 193.8 91.46 200.71 96.62 207.61 91.46 214.51 96.62 217.39 94.47 217.39 89.96"/><polygon class="cls-12" points="921.23 87.45 914.99 92.11 908.09 86.95 901.18 92.11 894.28 86.95 887.37 92.11 880.47 86.95 873.57 92.11 866.66 86.95 859.76 92.11 852.86 86.95 845.96 92.11 839.05 86.95 832.15 92.11 825.25 86.95 818.35 92.11 812.11 87.45 811.93 87.69 811.75 87.45 805.51 92.11 798.61 86.95 791.71 92.11 784.8 86.95 777.9 92.11 770.99 86.95 764.09 92.11 757.19 86.95 750.29 92.11 747.39 89.95 747.39 94.46 750.29 96.62 757.19 91.46 764.09 96.62 770.99 91.46 777.9 96.62 784.8 91.46 791.71 96.62 798.61 91.46 805.51 96.62 811.93 91.83 818.35 96.62 825.25 91.46 832.15 96.62 839.05 91.46 845.96 96.62 852.86 91.46 859.76 96.62 866.66 91.46 873.57 96.62 880.47 91.46 887.37 96.62 894.28 91.46 901.18 96.62 908.09 91.46 914.99 96.62 923.39 90.34 921.23 87.45"/><polygon class="cls-12" points="724.39 90.83 722.68 92.11 715.78 86.95 708.87 92.11 702.64 87.45 702.49 87.66 702.32 87.44 696.22 92 689.46 86.95 682.7 92 675.94 86.95 669.18 92 662.42 86.95 655.67 92 648.91 86.95 642.15 92 635.39 86.95 628.64 92 621.88 86.95 615.13 92 608.37 86.95 601.61 92 595.51 87.44 593.39 90.27 601.61 96.42 608.37 91.36 615.13 96.42 621.88 91.37 628.64 96.42 635.39 91.36 642.15 96.42 648.91 91.36 655.67 96.42 662.42 91.36 669.18 96.42 675.94 91.36 682.7 96.42 689.46 91.36 696.22 96.42 702.41 91.79 708.87 96.62 715.78 91.46 722.68 96.62 724.39 95.34 724.39 90.83"/></g></g></svg>